<svg xmlns="http://www.w3.org/2000/svg" xmlns:xlink="http://www.w3.org/1999/xlink" width="100" zoomAndPan="magnify" viewBox="0 0 75 30.000001" height="40" preserveAspectRatio="xMidYMid meet" version="1.0"><defs><g/><clipPath id="id1"><path d="M 10 7.429688 L 12 7.429688 L 12 9 L 10 9 Z M 10 7.429688 " clip-rule="nonzero"/></clipPath><clipPath id="id2"><path d="M 10 20 L 12 20 L 12 21.949219 L 10 21.949219 Z M 10 20 " clip-rule="nonzero"/></clipPath><clipPath id="id3"><path d="M 16 14 L 17.96875 14 L 17.96875 16 L 16 16 Z M 16 14 " clip-rule="nonzero"/></clipPath></defs><path fill="#33348e" d="M 10.710938 11.679688 C 12.371094 11.679688 13.722656 13.03125 13.722656 14.691406 C 13.722656 16.347656 12.371094 17.699219 10.710938 17.699219 C 9.054688 17.699219 7.703125 16.347656 7.703125 14.691406 C 7.703125 13.03125 9.054688 11.679688 10.710938 11.679688 Z M 10.710938 11.679688 " fill-opacity="1" fill-rule="evenodd"/><path fill="#cc2229" d="M 9.230469 9.160156 L 9.597656 8.578125 L 10.710938 9.21875 L 11.886719 8.597656 L 12.195312 9.160156 L 11.160156 9.71875 L 11.160156 11.628906 L 10.265625 11.628906 L 10.265625 9.71875 Z M 9.230469 9.160156 " fill-opacity="1" fill-rule="evenodd"/><path fill="#33348e" d="M 5.1875 13.214844 L 4.867188 12.605469 L 5.976562 11.957031 L 6.027344 10.628906 L 6.667969 10.644531 L 6.636719 11.820312 L 8.289062 12.777344 L 7.84375 13.554688 L 6.1875 12.597656 Z M 5.1875 13.214844 " fill-opacity="1" fill-rule="evenodd"/><path fill="#cc2229" d="M 6.664062 18.738281 L 5.976562 18.710938 L 5.972656 17.425781 L 4.847656 16.71875 L 5.183594 16.171875 L 6.183594 16.789062 L 7.839844 15.832031 L 8.285156 16.609375 L 6.632812 17.5625 Z M 16.242188 16.171875 L 16.558594 16.78125 L 15.449219 17.429688 L 15.402344 18.757812 L 14.757812 18.742188 L 14.792969 17.566406 L 13.136719 16.609375 L 13.585938 15.832031 L 15.238281 16.789062 Z M 16.242188 16.171875 " fill-opacity="1" fill-rule="evenodd"/><path fill="#33348e" d="M 14.765625 10.644531 L 15.453125 10.675781 L 15.457031 11.957031 L 16.582031 12.664062 L 16.25 13.214844 L 15.246094 12.597656 L 13.59375 13.550781 L 13.144531 12.777344 L 14.796875 11.820312 Z M 9.230469 20.21875 L 9.597656 20.800781 L 10.710938 20.160156 L 11.886719 20.78125 L 12.195312 20.21875 L 11.160156 19.660156 L 11.160156 17.75 L 10.265625 17.75 L 10.265625 19.660156 Z M 9.230469 20.21875 " fill-opacity="1" fill-rule="evenodd"/><path fill="#33348e" d="M 16.101562 11.117188 C 16.371094 11.117188 16.59375 11.320312 16.59375 11.570312 C 16.59375 11.820312 16.371094 12.027344 16.101562 12.027344 C 15.832031 12.027344 15.613281 11.820312 15.613281 11.570312 C 15.613281 11.320312 15.832031 11.117188 16.101562 11.117188 Z M 16.101562 11.117188 " fill-opacity="1" fill-rule="evenodd"/><path fill="#fff22d" d="M 13.757812 14.242188 L 14.246094 14.242188 L 14.246094 14.007812 L 15.667969 14.242188 L 16.246094 13.214844 L 16.820312 13.539062 L 16.226562 14.691406 L 16.808594 15.871094 L 16.242188 16.171875 L 15.667969 15.136719 L 14.246094 15.371094 L 14.246094 15.136719 L 13.757812 15.136719 Z M 13.757812 14.242188 " fill-opacity="1" fill-rule="evenodd"/><path fill="#6fa291" d="M 7.667969 14.242188 L 7.179688 14.242188 L 7.179688 14.007812 L 5.753906 14.242188 L 5.179688 13.214844 L 4.605469 13.539062 L 5.195312 14.691406 L 4.613281 15.871094 L 5.183594 16.171875 L 5.753906 15.136719 L 7.179688 15.371094 L 7.179688 15.136719 L 7.667969 15.136719 Z M 7.667969 14.242188 " fill-opacity="1" fill-rule="evenodd"/><path fill="#fff22d" d="M 8.804688 17.097656 L 8.5625 17.519531 L 8.359375 17.402344 L 7.847656 18.753906 L 6.671875 18.738281 L 6.664062 19.398438 L 7.960938 19.464844 L 8.691406 20.558594 L 9.234375 20.21875 L 8.625 19.203125 L 9.539062 18.085938 L 9.335938 17.96875 L 9.582031 17.546875 Z M 8.804688 17.097656 " fill-opacity="1" fill-rule="evenodd"/><path fill="#6fa291" d="M 11.84375 17.550781 L 12.085938 17.972656 L 11.882812 18.089844 L 12.796875 19.203125 L 12.195312 20.21875 L 12.765625 20.554688 L 13.46875 19.464844 L 14.78125 19.378906 L 14.757812 18.734375 L 13.574219 18.757812 L 13.066406 17.40625 L 12.863281 17.523438 L 12.621094 17.101562 Z M 12.628906 12.285156 L 12.875 11.863281 L 13.078125 11.984375 L 13.585938 10.632812 L 14.761719 10.644531 L 14.769531 9.988281 L 13.476562 9.921875 L 12.746094 8.828125 L 12.199219 9.167969 L 12.808594 10.183594 L 11.894531 11.300781 L 12.097656 11.417969 L 11.851562 11.839844 Z M 12.628906 12.285156 " fill-opacity="1" fill-rule="evenodd"/><path fill="#fff22d" d="M 9.582031 11.832031 L 9.335938 11.410156 L 9.539062 11.292969 L 8.625 10.175781 L 9.226562 9.164062 L 8.660156 8.828125 L 7.957031 9.914062 L 6.644531 10.003906 L 6.664062 10.644531 L 7.847656 10.625 L 8.359375 11.972656 L 8.558594 11.855469 L 8.804688 12.277344 Z M 9.582031 11.832031 " fill-opacity="1" fill-rule="evenodd"/><path fill="#6fa291" d="M 14.0625 8.890625 C 14.28125 9.019531 14.359375 9.304688 14.230469 9.523438 C 14.105469 9.746094 13.820312 9.820312 13.597656 9.695312 C 13.375 9.566406 13.300781 9.28125 13.429688 9.0625 C 13.554688 8.839844 13.839844 8.761719 14.0625 8.890625 Z M 14.0625 8.890625 " fill-opacity="1" fill-rule="evenodd"/><g clip-path="url(#id1)"><path fill="#cc2229" d="M 10.710938 7.992188 C 10.96875 7.992188 11.175781 8.199219 11.175781 8.453125 C 11.175781 8.710938 10.96875 8.917969 10.710938 8.917969 C 10.457031 8.917969 10.25 8.710938 10.25 8.453125 C 10.25 8.199219 10.457031 7.992188 10.710938 7.992188 Z M 10.710938 7.992188 " fill-opacity="1" fill-rule="evenodd"/></g><path fill="#fff22d" d="M 7.363281 8.890625 C 7.585938 8.761719 7.871094 8.839844 7.996094 9.0625 C 8.125 9.28125 8.046875 9.566406 7.828125 9.695312 C 7.605469 9.820312 7.320312 9.746094 7.195312 9.523438 C 7.066406 9.304688 7.140625 9.019531 7.363281 8.890625 Z M 7.363281 8.890625 " fill-opacity="1" fill-rule="evenodd"/><path fill="#33348e" d="M 4.914062 11.34375 C 5.039062 11.125 5.324219 11.046875 5.546875 11.175781 C 5.765625 11.300781 5.84375 11.585938 5.714844 11.808594 C 5.585938 12.03125 5.304688 12.105469 5.082031 11.976562 C 4.859375 11.851562 4.785156 11.566406 4.914062 11.34375 Z M 4.914062 11.34375 " fill-opacity="1" fill-rule="evenodd"/><path fill="#6fa291" d="M 4.011719 14.691406 C 4.011719 14.433594 4.21875 14.226562 4.476562 14.226562 C 4.730469 14.226562 4.9375 14.433594 4.9375 14.691406 C 4.9375 14.945312 4.730469 15.152344 4.476562 15.152344 C 4.21875 15.152344 4.011719 14.945312 4.011719 14.691406 Z M 4.011719 14.691406 " fill-opacity="1" fill-rule="evenodd"/><path fill="#cc2229" d="M 4.914062 18.039062 C 4.785156 17.816406 4.863281 17.535156 5.085938 17.40625 C 5.304688 17.277344 5.589844 17.355469 5.71875 17.574219 C 5.84375 17.796875 5.769531 18.082031 5.546875 18.207031 C 5.328125 18.335938 5.042969 18.261719 4.914062 18.039062 Z M 4.914062 18.039062 " fill-opacity="1" fill-rule="evenodd"/><path fill="#fff22d" d="M 7.367188 20.492188 C 7.144531 20.363281 7.066406 20.078125 7.195312 19.859375 C 7.324219 19.636719 7.609375 19.558594 7.828125 19.6875 C 8.050781 19.816406 8.125 20.101562 8 20.320312 C 7.871094 20.542969 7.585938 20.617188 7.367188 20.492188 Z M 7.367188 20.492188 " fill-opacity="1" fill-rule="evenodd"/><g clip-path="url(#id2)"><path fill="#33348e" d="M 10.710938 21.386719 C 10.457031 21.386719 10.25 21.179688 10.25 20.925781 C 10.25 20.667969 10.457031 20.460938 10.710938 20.460938 C 10.96875 20.460938 11.175781 20.667969 11.175781 20.925781 C 11.175781 21.179688 10.96875 21.386719 10.710938 21.386719 Z M 10.710938 21.386719 " fill-opacity="1" fill-rule="evenodd"/></g><path fill="#6fa291" d="M 14.058594 20.488281 C 13.839844 20.617188 13.554688 20.539062 13.425781 20.320312 C 13.296875 20.097656 13.375 19.8125 13.59375 19.683594 C 13.816406 19.558594 14.101562 19.632812 14.230469 19.855469 C 14.355469 20.074219 14.28125 20.359375 14.058594 20.488281 Z M 14.058594 20.488281 " fill-opacity="1" fill-rule="evenodd"/><path fill="#cc2229" d="M 16.511719 18.039062 C 16.382812 18.257812 16.097656 18.335938 15.878906 18.207031 C 15.65625 18.082031 15.578125 17.796875 15.707031 17.574219 C 15.835938 17.351562 16.121094 17.277344 16.339844 17.40625 C 16.5625 17.53125 16.636719 17.816406 16.511719 18.039062 Z M 16.511719 18.039062 " fill-opacity="1" fill-rule="evenodd"/><g clip-path="url(#id3)"><path fill="#fff22d" d="M 17.410156 14.691406 C 17.410156 14.945312 17.203125 15.15625 16.949219 15.15625 C 16.820312 15.15625 16.710938 15.109375 16.621094 15.019531 C 16.527344 14.929688 16.484375 14.820312 16.484375 14.691406 C 16.484375 14.4375 16.691406 14.226562 16.949219 14.226562 C 17.203125 14.226562 17.410156 14.4375 17.410156 14.691406 Z M 17.410156 14.691406 " fill-opacity="1" fill-rule="evenodd"/></g><path fill="#00acec" d="M 9.140625 11.96875 C 10.640625 11.105469 12.570312 11.621094 13.433594 13.121094 C 14.300781 14.617188 13.785156 16.546875 12.285156 17.414062 C 10.785156 18.277344 8.855469 17.761719 7.992188 16.261719 C 7.125 14.761719 7.640625 12.835938 9.140625 11.96875 Z M 10.355469 17.550781 C 9.761719 17.511719 9.382812 17.296875 8.925781 16.921875 C 9.121094 16.746094 9.339844 16.601562 9.582031 16.492188 C 9.777344 16.898438 9.980469 17.199219 10.355469 17.550781 Z M 10.617188 16.246094 C 10.339844 16.253906 10.074219 16.300781 9.8125 16.394531 C 9.988281 16.757812 10.304688 17.246094 10.617188 17.554688 Z M 10.851562 16.242188 C 11.121094 16.253906 11.390625 16.308594 11.65625 16.402344 C 11.472656 16.765625 11.160156 17.277344 10.851562 17.558594 Z M 11.890625 16.496094 C 12.125 16.609375 12.347656 16.746094 12.546875 16.917969 C 12.085938 17.296875 11.71875 17.503906 11.136719 17.539062 C 11.5 17.195312 11.699219 16.929688 11.890625 16.496094 Z M 10.332031 11.84375 C 9.738281 11.882812 9.359375 12.097656 8.902344 12.472656 C 9.101562 12.648438 9.316406 12.792969 9.558594 12.902344 C 9.753906 12.496094 9.957031 12.195312 10.332031 11.84375 Z M 10.59375 13.148438 C 10.320312 13.140625 10.050781 13.089844 9.789062 12.996094 C 9.964844 12.636719 10.28125 12.148438 10.597656 11.835938 Z M 10.828125 13.148438 C 11.105469 13.136719 11.371094 13.085938 11.632812 12.992188 C 11.449219 12.625 11.136719 12.117188 10.832031 11.835938 Z M 11.867188 12.898438 C 12.101562 12.785156 12.324219 12.648438 12.523438 12.476562 C 12.0625 12.097656 11.695312 11.890625 11.113281 11.851562 C 11.476562 12.199219 11.675781 12.464844 11.867188 12.898438 Z M 7.851562 14.574219 C 7.886719 13.835938 8.203125 13.121094 8.757812 12.605469 C 8.972656 12.800781 9.210938 12.957031 9.460938 13.082031 C 9.222656 13.546875 9.089844 14.046875 9.074219 14.574219 Z M 9.320312 14.578125 C 9.339844 14.085938 9.464844 13.617188 9.6875 13.175781 C 9.976562 13.28125 10.28125 13.34375 10.59375 13.355469 L 10.59375 14.574219 Z M 12.101562 14.574219 C 12.085938 14.082031 11.964844 13.617188 11.738281 13.179688 C 11.4375 13.289062 11.132812 13.347656 10.828125 13.359375 L 10.828125 14.574219 Z M 12.675781 12.605469 C 12.878906 12.796875 13.054688 13.015625 13.195312 13.257812 C 13.433594 13.675781 13.558594 14.128906 13.574219 14.574219 L 12.347656 14.574219 C 12.335938 14.066406 12.210938 13.554688 11.964844 13.078125 C 12.226562 12.953125 12.460938 12.796875 12.675781 12.605469 Z M 12.675781 16.78125 C 12.882812 16.589844 13.054688 16.371094 13.195312 16.125 C 13.4375 15.710938 13.558594 15.257812 13.574219 14.808594 L 12.347656 14.8125 C 12.335938 15.316406 12.210938 15.828125 11.96875 16.308594 C 12.226562 16.433594 12.460938 16.589844 12.675781 16.78125 Z M 12.101562 14.8125 C 12.085938 15.304688 11.964844 15.769531 11.738281 16.203125 C 11.4375 16.097656 11.132812 16.039062 10.828125 16.027344 L 10.832031 14.8125 Z M 9.324219 14.808594 C 9.34375 15.300781 9.464844 15.769531 9.691406 16.207031 C 9.980469 16.105469 10.285156 16.042969 10.59375 16.03125 L 10.597656 14.8125 Z M 7.855469 14.808594 C 7.886719 15.546875 8.207031 16.265625 8.761719 16.78125 C 8.972656 16.585938 9.210938 16.425781 9.464844 16.304688 C 9.226562 15.835938 9.09375 15.339844 9.074219 14.808594 Z M 7.855469 14.808594 " fill-opacity="1" fill-rule="evenodd"/><g fill="#000000" fill-opacity="1"><g transform="translate(19.119249, 12.965175)"><g><path d="M 1.171875 -0.703125 L 2.1875 -0.703125 L 2.1875 0 L 0.265625 0 L 0.265625 -3.28125 L 1.171875 -3.28125 Z M 1.171875 -0.703125 "/></g></g></g><g fill="#000000" fill-opacity="1"><g transform="translate(21.403824, 12.965175)"><g><path d="M 1.171875 -2.546875 L 1.171875 -2.015625 L 2.21875 -2.015625 L 2.21875 -1.328125 L 1.171875 -1.328125 L 1.171875 -0.734375 L 2.359375 -0.734375 L 2.359375 0 L 0.265625 0 L 0.265625 -3.28125 L 2.359375 -3.28125 L 2.359375 -2.546875 Z M 1.171875 -2.546875 "/></g></g></g><g fill="#000000" fill-opacity="1"><g transform="translate(23.953613, 12.965175)"><g><path d="M 2.34375 -0.53125 L 1.171875 -0.53125 L 1 0 L 0.03125 0 L 1.234375 -3.28125 L 2.28125 -3.28125 L 3.484375 0 L 2.515625 0 Z M 2.109375 -1.234375 L 1.75 -2.296875 L 1.40625 -1.234375 Z M 2.109375 -1.234375 "/></g></g></g><g fill="#000000" fill-opacity="1"><g transform="translate(27.46655, 12.965175)"><g><path d="M 1.5625 -3.28125 C 1.90625 -3.28125 2.207031 -3.210938 2.46875 -3.078125 C 2.726562 -2.941406 2.925781 -2.75 3.0625 -2.5 C 3.195312 -2.25 3.265625 -1.960938 3.265625 -1.640625 C 3.265625 -1.328125 3.191406 -1.046875 3.046875 -0.796875 C 2.910156 -0.546875 2.710938 -0.347656 2.453125 -0.203125 C 2.203125 -0.0664062 1.90625 0 1.5625 0 L 0.265625 0 L 0.265625 -3.28125 Z M 1.484375 -0.8125 C 1.753906 -0.8125 1.960938 -0.882812 2.109375 -1.03125 C 2.265625 -1.175781 2.34375 -1.378906 2.34375 -1.640625 C 2.34375 -1.910156 2.265625 -2.117188 2.109375 -2.265625 C 1.960938 -2.410156 1.753906 -2.484375 1.484375 -2.484375 L 1.171875 -2.484375 L 1.171875 -0.8125 Z M 1.484375 -0.8125 "/></g></g></g><g fill="#000000" fill-opacity="1"><g transform="translate(30.886433, 12.965175)"><g><path d="M 1.171875 -2.546875 L 1.171875 -2.015625 L 2.21875 -2.015625 L 2.21875 -1.328125 L 1.171875 -1.328125 L 1.171875 -0.734375 L 2.359375 -0.734375 L 2.359375 0 L 0.265625 0 L 0.265625 -3.28125 L 2.359375 -3.28125 L 2.359375 -2.546875 Z M 1.171875 -2.546875 "/></g></g></g><g fill="#000000" fill-opacity="1"><g transform="translate(33.436223, 12.965175)"><g><path d="M 1.921875 0 L 1.265625 -1.203125 L 1.171875 -1.203125 L 1.171875 0 L 0.265625 0 L 0.265625 -3.28125 L 1.703125 -3.28125 C 1.960938 -3.28125 2.179688 -3.234375 2.359375 -3.140625 C 2.546875 -3.054688 2.6875 -2.929688 2.78125 -2.765625 C 2.875 -2.609375 2.921875 -2.429688 2.921875 -2.234375 C 2.921875 -2.003906 2.859375 -1.804688 2.734375 -1.640625 C 2.617188 -1.472656 2.441406 -1.351562 2.203125 -1.28125 L 2.9375 0 Z M 1.171875 -1.828125 L 1.625 -1.828125 C 1.75 -1.828125 1.84375 -1.859375 1.90625 -1.921875 C 1.96875 -1.984375 2 -2.066406 2 -2.171875 C 2 -2.285156 1.96875 -2.367188 1.90625 -2.421875 C 1.84375 -2.484375 1.75 -2.515625 1.625 -2.515625 L 1.171875 -2.515625 Z M 1.171875 -1.828125 "/></g></g></g><g fill="#000000" fill-opacity="1"><g transform="translate(36.511788, 12.965175)"><g><path d="M 1.5 0.03125 C 1.113281 0.03125 0.796875 -0.0546875 0.546875 -0.234375 C 0.304688 -0.421875 0.175781 -0.679688 0.15625 -1.015625 L 1.140625 -1.015625 C 1.148438 -0.898438 1.179688 -0.816406 1.234375 -0.765625 C 1.296875 -0.710938 1.375 -0.6875 1.46875 -0.6875 C 1.550781 -0.6875 1.617188 -0.707031 1.671875 -0.75 C 1.722656 -0.789062 1.75 -0.847656 1.75 -0.921875 C 1.75 -1.023438 1.703125 -1.101562 1.609375 -1.15625 C 1.523438 -1.207031 1.382812 -1.265625 1.1875 -1.328125 C 0.96875 -1.398438 0.789062 -1.46875 0.65625 -1.53125 C 0.53125 -1.601562 0.414062 -1.703125 0.3125 -1.828125 C 0.21875 -1.953125 0.171875 -2.117188 0.171875 -2.328125 C 0.171875 -2.546875 0.222656 -2.726562 0.328125 -2.875 C 0.429688 -3.019531 0.578125 -3.128906 0.765625 -3.203125 C 0.953125 -3.285156 1.164062 -3.328125 1.40625 -3.328125 C 1.78125 -3.328125 2.082031 -3.238281 2.3125 -3.0625 C 2.539062 -2.882812 2.664062 -2.632812 2.6875 -2.3125 L 1.6875 -2.3125 C 1.6875 -2.414062 1.65625 -2.488281 1.59375 -2.53125 C 1.539062 -2.582031 1.46875 -2.609375 1.375 -2.609375 C 1.3125 -2.609375 1.253906 -2.585938 1.203125 -2.546875 C 1.160156 -2.503906 1.140625 -2.445312 1.140625 -2.375 C 1.140625 -2.3125 1.164062 -2.257812 1.21875 -2.21875 C 1.269531 -2.175781 1.328125 -2.132812 1.390625 -2.09375 C 1.460938 -2.0625 1.570312 -2.023438 1.71875 -1.984375 C 1.925781 -1.910156 2.097656 -1.835938 2.234375 -1.765625 C 2.367188 -1.691406 2.484375 -1.59375 2.578125 -1.46875 C 2.671875 -1.34375 2.71875 -1.1875 2.71875 -1 C 2.71875 -0.800781 2.671875 -0.625 2.578125 -0.46875 C 2.484375 -0.3125 2.34375 -0.1875 2.15625 -0.09375 C 1.96875 -0.0078125 1.75 0.03125 1.5 0.03125 Z M 1.5 0.03125 "/></g></g></g><g fill="#000000" fill-opacity="1"><g transform="translate(39.396583, 12.965175)"><g><path d="M 3.203125 -3.28125 L 3.203125 0 L 2.28125 0 L 2.28125 -1.3125 L 1.171875 -1.3125 L 1.171875 0 L 0.265625 0 L 0.265625 -3.28125 L 1.171875 -3.28125 L 1.171875 -2.046875 L 2.28125 -2.046875 L 2.28125 -3.28125 Z M 3.203125 -3.28125 "/></g></g></g><g fill="#000000" fill-opacity="1"><g transform="translate(42.853686, 12.965175)"><g><path d="M 1.171875 -3.28125 L 1.171875 0 L 0.265625 0 L 0.265625 -3.28125 Z M 1.171875 -3.28125 "/></g></g></g><g fill="#000000" fill-opacity="1"><g transform="translate(44.286781, 12.965175)"><g><path d="M 2.859375 -2.1875 C 2.859375 -1.988281 2.8125 -1.804688 2.71875 -1.640625 C 2.625 -1.484375 2.484375 -1.351562 2.296875 -1.25 C 2.117188 -1.15625 1.894531 -1.109375 1.625 -1.109375 L 1.171875 -1.109375 L 1.171875 0 L 0.265625 0 L 0.265625 -3.28125 L 1.625 -3.28125 C 1.882812 -3.28125 2.109375 -3.234375 2.296875 -3.140625 C 2.484375 -3.046875 2.625 -2.914062 2.71875 -2.75 C 2.8125 -2.59375 2.859375 -2.40625 2.859375 -2.1875 Z M 1.53125 -1.828125 C 1.789062 -1.828125 1.921875 -1.945312 1.921875 -2.1875 C 1.921875 -2.425781 1.789062 -2.546875 1.53125 -2.546875 L 1.171875 -2.546875 L 1.171875 -1.828125 Z M 1.53125 -1.828125 "/></g></g></g><g fill="#000000" fill-opacity="1"><g transform="translate(47.246023, 12.965175)"><g/></g></g><g fill="#000000" fill-opacity="1"><g transform="translate(48.134729, 12.965175)"><g><path d="M 2.734375 -3.28125 L 2.734375 -2.5625 L 1.859375 -2.5625 L 1.859375 0 L 0.9375 0 L 0.9375 -2.5625 L 0.078125 -2.5625 L 0.078125 -3.28125 Z M 2.734375 -3.28125 "/></g></g></g><g fill="#000000" fill-opacity="1"><g transform="translate(50.945078, 12.965175)"><g><path d="M 1.921875 0 L 1.265625 -1.203125 L 1.171875 -1.203125 L 1.171875 0 L 0.265625 0 L 0.265625 -3.28125 L 1.703125 -3.28125 C 1.960938 -3.28125 2.179688 -3.234375 2.359375 -3.140625 C 2.546875 -3.054688 2.6875 -2.929688 2.78125 -2.765625 C 2.875 -2.609375 2.921875 -2.429688 2.921875 -2.234375 C 2.921875 -2.003906 2.859375 -1.804688 2.734375 -1.640625 C 2.617188 -1.472656 2.441406 -1.351562 2.203125 -1.28125 L 2.9375 0 Z M 1.171875 -1.828125 L 1.625 -1.828125 C 1.75 -1.828125 1.84375 -1.859375 1.90625 -1.921875 C 1.96875 -1.984375 2 -2.066406 2 -2.171875 C 2 -2.285156 1.96875 -2.367188 1.90625 -2.421875 C 1.84375 -2.484375 1.75 -2.515625 1.625 -2.515625 L 1.171875 -2.515625 Z M 1.171875 -1.828125 "/></g></g></g><g fill="#000000" fill-opacity="1"><g transform="translate(54.020643, 12.965175)"><g><path d="M 2.34375 -0.53125 L 1.171875 -0.53125 L 1 0 L 0.03125 0 L 1.234375 -3.28125 L 2.28125 -3.28125 L 3.484375 0 L 2.515625 0 Z M 2.109375 -1.234375 L 1.75 -2.296875 L 1.40625 -1.234375 Z M 2.109375 -1.234375 "/></g></g></g><g fill="#000000" fill-opacity="1"><g transform="translate(57.533579, 12.965175)"><g><path d="M 1.171875 -3.28125 L 1.171875 0 L 0.265625 0 L 0.265625 -3.28125 Z M 1.171875 -3.28125 "/></g></g></g><g fill="#000000" fill-opacity="1"><g transform="translate(58.966674, 12.965175)"><g><path d="M 3.296875 0 L 2.390625 0 L 1.171875 -1.828125 L 1.171875 0 L 0.265625 0 L 0.265625 -3.28125 L 1.171875 -3.28125 L 2.390625 -1.421875 L 2.390625 -3.28125 L 3.296875 -3.28125 Z M 3.296875 0 "/></g></g></g><g fill="#000000" fill-opacity="1"><g transform="translate(62.526143, 12.965175)"><g><path d="M 1.171875 -3.28125 L 1.171875 0 L 0.265625 0 L 0.265625 -3.28125 Z M 1.171875 -3.28125 "/></g></g></g><g fill="#000000" fill-opacity="1"><g transform="translate(63.959237, 12.965175)"><g><path d="M 3.296875 0 L 2.390625 0 L 1.171875 -1.828125 L 1.171875 0 L 0.265625 0 L 0.265625 -3.28125 L 1.171875 -3.28125 L 2.390625 -1.421875 L 2.390625 -3.28125 L 3.296875 -3.28125 Z M 3.296875 0 "/></g></g></g><g fill="#000000" fill-opacity="1"><g transform="translate(67.518706, 12.965175)"><g><path d="M 2.359375 -2.203125 C 2.304688 -2.285156 2.234375 -2.347656 2.140625 -2.390625 C 2.046875 -2.441406 1.9375 -2.46875 1.8125 -2.46875 C 1.582031 -2.46875 1.398438 -2.394531 1.265625 -2.25 C 1.140625 -2.101562 1.078125 -1.898438 1.078125 -1.640625 C 1.078125 -1.359375 1.144531 -1.144531 1.28125 -1 C 1.425781 -0.851562 1.632812 -0.78125 1.90625 -0.78125 C 2.226562 -0.78125 2.457031 -0.925781 2.59375 -1.21875 L 1.671875 -1.21875 L 1.671875 -1.875 L 3.375 -1.875 L 3.375 -0.984375 C 3.300781 -0.804688 3.195312 -0.640625 3.0625 -0.484375 C 2.925781 -0.335938 2.75 -0.21875 2.53125 -0.125 C 2.320312 -0.03125 2.082031 0.015625 1.8125 0.015625 C 1.488281 0.015625 1.195312 -0.0507812 0.9375 -0.1875 C 0.6875 -0.332031 0.492188 -0.53125 0.359375 -0.78125 C 0.222656 -1.03125 0.15625 -1.316406 0.15625 -1.640625 C 0.15625 -1.960938 0.222656 -2.25 0.359375 -2.5 C 0.492188 -2.757812 0.6875 -2.957031 0.9375 -3.09375 C 1.1875 -3.238281 1.476562 -3.3125 1.8125 -3.3125 C 2.226562 -3.3125 2.566406 -3.210938 2.828125 -3.015625 C 3.097656 -2.816406 3.269531 -2.546875 3.34375 -2.203125 Z M 2.359375 -2.203125 "/></g></g></g><g fill="#000000" fill-opacity="1"><g transform="translate(19.925019, 19.168996)"><g><path d="M 2.359375 -2.203125 C 2.304688 -2.285156 2.234375 -2.347656 2.140625 -2.390625 C 2.046875 -2.441406 1.9375 -2.46875 1.8125 -2.46875 C 1.582031 -2.46875 1.398438 -2.394531 1.265625 -2.25 C 1.140625 -2.101562 1.078125 -1.898438 1.078125 -1.640625 C 1.078125 -1.359375 1.144531 -1.144531 1.28125 -1 C 1.425781 -0.851562 1.632812 -0.78125 1.90625 -0.78125 C 2.226562 -0.78125 2.457031 -0.925781 2.59375 -1.21875 L 1.671875 -1.21875 L 1.671875 -1.875 L 3.375 -1.875 L 3.375 -0.984375 C 3.300781 -0.804688 3.195312 -0.640625 3.0625 -0.484375 C 2.925781 -0.335938 2.75 -0.21875 2.53125 -0.125 C 2.320312 -0.03125 2.082031 0.015625 1.8125 0.015625 C 1.488281 0.015625 1.195312 -0.0507812 0.9375 -0.1875 C 0.6875 -0.332031 0.492188 -0.53125 0.359375 -0.78125 C 0.222656 -1.03125 0.15625 -1.316406 0.15625 -1.640625 C 0.15625 -1.960938 0.222656 -2.25 0.359375 -2.5 C 0.492188 -2.757812 0.6875 -2.957031 0.9375 -3.09375 C 1.1875 -3.238281 1.476562 -3.3125 1.8125 -3.3125 C 2.226562 -3.3125 2.566406 -3.210938 2.828125 -3.015625 C 3.097656 -2.816406 3.269531 -2.546875 3.34375 -2.203125 Z M 2.359375 -2.203125 "/></g></g></g><g fill="#000000" fill-opacity="1"><g transform="translate(23.447262, 19.168996)"><g><path d="M 1.171875 -0.703125 L 2.1875 -0.703125 L 2.1875 0 L 0.265625 0 L 0.265625 -3.28125 L 1.171875 -3.28125 Z M 1.171875 -0.703125 "/></g></g></g><g fill="#000000" fill-opacity="1"><g transform="translate(25.731836, 19.168996)"><g><path d="M 1.828125 0.03125 C 1.523438 0.03125 1.242188 -0.0390625 0.984375 -0.1875 C 0.722656 -0.332031 0.519531 -0.53125 0.375 -0.78125 C 0.226562 -1.039062 0.15625 -1.332031 0.15625 -1.65625 C 0.15625 -1.976562 0.226562 -2.265625 0.375 -2.515625 C 0.519531 -2.773438 0.722656 -2.972656 0.984375 -3.109375 C 1.242188 -3.253906 1.523438 -3.328125 1.828125 -3.328125 C 2.140625 -3.328125 2.421875 -3.253906 2.671875 -3.109375 C 2.929688 -2.972656 3.132812 -2.773438 3.28125 -2.515625 C 3.4375 -2.265625 3.515625 -1.976562 3.515625 -1.65625 C 3.515625 -1.332031 3.4375 -1.039062 3.28125 -0.78125 C 3.132812 -0.53125 2.929688 -0.332031 2.671875 -0.1875 C 2.421875 -0.0390625 2.140625 0.03125 1.828125 0.03125 Z M 1.828125 -0.8125 C 2.066406 -0.8125 2.253906 -0.882812 2.390625 -1.03125 C 2.523438 -1.1875 2.59375 -1.394531 2.59375 -1.65625 C 2.59375 -1.914062 2.523438 -2.117188 2.390625 -2.265625 C 2.253906 -2.421875 2.066406 -2.5 1.828125 -2.5 C 1.597656 -2.5 1.414062 -2.421875 1.28125 -2.265625 C 1.144531 -2.117188 1.078125 -1.914062 1.078125 -1.65625 C 1.078125 -1.394531 1.144531 -1.1875 1.28125 -1.03125 C 1.414062 -0.882812 1.597656 -0.8125 1.828125 -0.8125 Z M 1.828125 -0.8125 "/></g></g></g><g fill="#000000" fill-opacity="1"><g transform="translate(29.393666, 19.168996)"><g><path d="M 2.359375 -1.6875 C 2.546875 -1.644531 2.695312 -1.546875 2.8125 -1.390625 C 2.925781 -1.242188 2.984375 -1.078125 2.984375 -0.890625 C 2.984375 -0.609375 2.882812 -0.390625 2.6875 -0.234375 C 2.5 -0.078125 2.234375 0 1.890625 0 L 0.265625 0 L 0.265625 -3.28125 L 1.828125 -3.28125 C 2.171875 -3.28125 2.4375 -3.203125 2.625 -3.046875 C 2.8125 -2.898438 2.90625 -2.695312 2.90625 -2.4375 C 2.90625 -2.238281 2.851562 -2.070312 2.75 -1.9375 C 2.65625 -1.8125 2.523438 -1.726562 2.359375 -1.6875 Z M 1.171875 -1.984375 L 1.640625 -1.984375 C 1.867188 -1.984375 1.984375 -2.078125 1.984375 -2.265625 C 1.984375 -2.460938 1.867188 -2.5625 1.640625 -2.5625 L 1.171875 -2.5625 Z M 1.703125 -0.734375 C 1.929688 -0.734375 2.046875 -0.832031 2.046875 -1.03125 C 2.046875 -1.125 2.015625 -1.195312 1.953125 -1.25 C 1.890625 -1.300781 1.804688 -1.328125 1.703125 -1.328125 L 1.171875 -1.328125 L 1.171875 -0.734375 Z M 1.703125 -0.734375 "/></g></g></g><g fill="#000000" fill-opacity="1"><g transform="translate(32.515763, 19.168996)"><g><path d="M 2.34375 -0.53125 L 1.171875 -0.53125 L 1 0 L 0.03125 0 L 1.234375 -3.28125 L 2.28125 -3.28125 L 3.484375 0 L 2.515625 0 Z M 2.109375 -1.234375 L 1.75 -2.296875 L 1.40625 -1.234375 Z M 2.109375 -1.234375 "/></g></g></g><g fill="#000000" fill-opacity="1"><g transform="translate(36.0287, 19.168996)"><g><path d="M 1.171875 -0.703125 L 2.1875 -0.703125 L 2.1875 0 L 0.265625 0 L 0.265625 -3.28125 L 1.171875 -3.28125 Z M 1.171875 -0.703125 "/></g></g></g><g fill="#000000" fill-opacity="1"><g transform="translate(38.313274, 19.168996)"><g/></g></g><g fill="#000000" fill-opacity="1"><g transform="translate(39.20198, 19.168996)"><g><path d="M 1.5 0.03125 C 1.113281 0.03125 0.796875 -0.0546875 0.546875 -0.234375 C 0.304688 -0.421875 0.175781 -0.679688 0.15625 -1.015625 L 1.140625 -1.015625 C 1.148438 -0.898438 1.179688 -0.816406 1.234375 -0.765625 C 1.296875 -0.710938 1.375 -0.6875 1.46875 -0.6875 C 1.550781 -0.6875 1.617188 -0.707031 1.671875 -0.75 C 1.722656 -0.789062 1.75 -0.847656 1.75 -0.921875 C 1.75 -1.023438 1.703125 -1.101562 1.609375 -1.15625 C 1.523438 -1.207031 1.382812 -1.265625 1.1875 -1.328125 C 0.96875 -1.398438 0.789062 -1.46875 0.65625 -1.53125 C 0.53125 -1.601562 0.414062 -1.703125 0.3125 -1.828125 C 0.21875 -1.953125 0.171875 -2.117188 0.171875 -2.328125 C 0.171875 -2.546875 0.222656 -2.726562 0.328125 -2.875 C 0.429688 -3.019531 0.578125 -3.128906 0.765625 -3.203125 C 0.953125 -3.285156 1.164062 -3.328125 1.40625 -3.328125 C 1.78125 -3.328125 2.082031 -3.238281 2.3125 -3.0625 C 2.539062 -2.882812 2.664062 -2.632812 2.6875 -2.3125 L 1.6875 -2.3125 C 1.6875 -2.414062 1.65625 -2.488281 1.59375 -2.53125 C 1.539062 -2.582031 1.46875 -2.609375 1.375 -2.609375 C 1.3125 -2.609375 1.253906 -2.585938 1.203125 -2.546875 C 1.160156 -2.503906 1.140625 -2.445312 1.140625 -2.375 C 1.140625 -2.3125 1.164062 -2.257812 1.21875 -2.21875 C 1.269531 -2.175781 1.328125 -2.132812 1.390625 -2.09375 C 1.460938 -2.0625 1.570312 -2.023438 1.71875 -1.984375 C 1.925781 -1.910156 2.097656 -1.835938 2.234375 -1.765625 C 2.367188 -1.691406 2.484375 -1.59375 2.578125 -1.46875 C 2.671875 -1.34375 2.71875 -1.1875 2.71875 -1 C 2.71875 -0.800781 2.671875 -0.625 2.578125 -0.46875 C 2.484375 -0.3125 2.34375 -0.1875 2.15625 -0.09375 C 1.96875 -0.0078125 1.75 0.03125 1.5 0.03125 Z M 1.5 0.03125 "/></g></g></g><g fill="#000000" fill-opacity="1"><g transform="translate(42.086776, 19.168996)"><g><path d="M 1.15625 -3.28125 L 1.15625 -1.375 C 1.15625 -1.195312 1.195312 -1.0625 1.28125 -0.96875 C 1.363281 -0.875 1.488281 -0.828125 1.65625 -0.828125 C 1.820312 -0.828125 1.945312 -0.875 2.03125 -0.96875 C 2.113281 -1.070312 2.15625 -1.207031 2.15625 -1.375 L 2.15625 -3.28125 L 3.078125 -3.28125 L 3.078125 -1.375 C 3.078125 -1.070312 3.007812 -0.8125 2.875 -0.59375 C 2.75 -0.382812 2.578125 -0.226562 2.359375 -0.125 C 2.140625 -0.0195312 1.898438 0.03125 1.640625 0.03125 C 1.367188 0.03125 1.128906 -0.0195312 0.921875 -0.125 C 0.710938 -0.226562 0.546875 -0.382812 0.421875 -0.59375 C 0.304688 -0.8125 0.25 -1.070312 0.25 -1.375 L 0.25 -3.28125 Z M 1.15625 -3.28125 "/></g></g></g><g fill="#000000" fill-opacity="1"><g transform="translate(45.399643, 19.168996)"><g><path d="M 4.09375 -3.28125 L 4.09375 0 L 3.1875 0 L 3.1875 -1.8125 L 2.5625 0 L 1.796875 0 L 1.171875 -1.828125 L 1.171875 0 L 0.265625 0 L 0.265625 -3.28125 L 1.359375 -3.28125 L 2.1875 -1.15625 L 3 -3.28125 Z M 4.09375 -3.28125 "/></g></g></g><g fill="#000000" fill-opacity="1"><g transform="translate(49.750102, 19.168996)"><g><path d="M 4.09375 -3.28125 L 4.09375 0 L 3.1875 0 L 3.1875 -1.8125 L 2.5625 0 L 1.796875 0 L 1.171875 -1.828125 L 1.171875 0 L 0.265625 0 L 0.265625 -3.28125 L 1.359375 -3.28125 L 2.1875 -1.15625 L 3 -3.28125 Z M 4.09375 -3.28125 "/></g></g></g><g fill="#000000" fill-opacity="1"><g transform="translate(54.100562, 19.168996)"><g><path d="M 1.171875 -3.28125 L 1.171875 0 L 0.265625 0 L 0.265625 -3.28125 Z M 1.171875 -3.28125 "/></g></g></g><g fill="#000000" fill-opacity="1"><g transform="translate(55.533656, 19.168996)"><g><path d="M 2.734375 -3.28125 L 2.734375 -2.5625 L 1.859375 -2.5625 L 1.859375 0 L 0.9375 0 L 0.9375 -2.5625 L 0.078125 -2.5625 L 0.078125 -3.28125 Z M 2.734375 -3.28125 "/></g></g></g><g fill="#000000" fill-opacity="1"><g transform="translate(58.344005, 19.168996)"><g/></g></g><g fill="#000000" fill-opacity="1"><g transform="translate(59.232712, 19.168996)"><g><path d="M 0.15625 -0.734375 C 0.457031 -0.960938 0.703125 -1.160156 0.890625 -1.328125 C 1.085938 -1.503906 1.25 -1.679688 1.375 -1.859375 C 1.507812 -2.046875 1.578125 -2.222656 1.578125 -2.390625 C 1.578125 -2.484375 1.550781 -2.554688 1.5 -2.609375 C 1.457031 -2.671875 1.394531 -2.703125 1.3125 -2.703125 C 1.21875 -2.703125 1.144531 -2.664062 1.09375 -2.59375 C 1.050781 -2.519531 1.03125 -2.410156 1.03125 -2.265625 L 0.140625 -2.265625 C 0.148438 -2.535156 0.210938 -2.757812 0.328125 -2.9375 C 0.441406 -3.125 0.585938 -3.257812 0.765625 -3.34375 C 0.941406 -3.425781 1.140625 -3.46875 1.359375 -3.46875 C 1.742188 -3.46875 2.03125 -3.375 2.21875 -3.1875 C 2.40625 -3 2.5 -2.753906 2.5 -2.453125 C 2.5 -2.128906 2.390625 -1.828125 2.171875 -1.546875 C 1.953125 -1.265625 1.679688 -1.007812 1.359375 -0.78125 L 2.53125 -0.78125 L 2.53125 -0.046875 L 0.15625 -0.046875 Z M 0.15625 -0.734375 "/></g></g></g><g fill="#000000" fill-opacity="1"><g transform="translate(61.880211, 19.168996)"><g><path d="M 0.1875 -1.75 C 0.1875 -2.28125 0.289062 -2.695312 0.5 -3 C 0.71875 -3.3125 1.0625 -3.46875 1.53125 -3.46875 C 2 -3.46875 2.34375 -3.3125 2.5625 -3 C 2.78125 -2.695312 2.890625 -2.28125 2.890625 -1.75 C 2.890625 -1.207031 2.78125 -0.78125 2.5625 -0.46875 C 2.34375 -0.164062 2 -0.015625 1.53125 -0.015625 C 1.0625 -0.015625 0.71875 -0.164062 0.5 -0.46875 C 0.289062 -0.78125 0.1875 -1.207031 0.1875 -1.75 Z M 1.984375 -1.75 C 1.984375 -2.03125 1.953125 -2.242188 1.890625 -2.390625 C 1.835938 -2.535156 1.71875 -2.609375 1.53125 -2.609375 C 1.34375 -2.609375 1.21875 -2.535156 1.15625 -2.390625 C 1.101562 -2.242188 1.078125 -2.03125 1.078125 -1.75 C 1.078125 -1.46875 1.101562 -1.25 1.15625 -1.09375 C 1.21875 -0.945312 1.34375 -0.875 1.53125 -0.875 C 1.71875 -0.875 1.835938 -0.945312 1.890625 -1.09375 C 1.953125 -1.25 1.984375 -1.46875 1.984375 -1.75 Z M 1.984375 -1.75 "/></g></g></g><g fill="#000000" fill-opacity="1"><g transform="translate(64.937163, 19.168996)"><g><path d="M 0.15625 -0.734375 C 0.457031 -0.960938 0.703125 -1.160156 0.890625 -1.328125 C 1.085938 -1.503906 1.25 -1.679688 1.375 -1.859375 C 1.507812 -2.046875 1.578125 -2.222656 1.578125 -2.390625 C 1.578125 -2.484375 1.550781 -2.554688 1.5 -2.609375 C 1.457031 -2.671875 1.394531 -2.703125 1.3125 -2.703125 C 1.21875 -2.703125 1.144531 -2.664062 1.09375 -2.59375 C 1.050781 -2.519531 1.03125 -2.410156 1.03125 -2.265625 L 0.140625 -2.265625 C 0.148438 -2.535156 0.210938 -2.757812 0.328125 -2.9375 C 0.441406 -3.125 0.585938 -3.257812 0.765625 -3.34375 C 0.941406 -3.425781 1.140625 -3.46875 1.359375 -3.46875 C 1.742188 -3.46875 2.03125 -3.375 2.21875 -3.1875 C 2.40625 -3 2.5 -2.753906 2.5 -2.453125 C 2.5 -2.128906 2.390625 -1.828125 2.171875 -1.546875 C 1.953125 -1.265625 1.679688 -1.007812 1.359375 -0.78125 L 2.53125 -0.78125 L 2.53125 -0.046875 L 0.15625 -0.046875 Z M 0.15625 -0.734375 "/></g></g></g><g fill="#000000" fill-opacity="1"><g transform="translate(67.584663, 19.168996)"><g><path d="M 0.15625 -0.734375 C 0.457031 -0.960938 0.703125 -1.160156 0.890625 -1.328125 C 1.085938 -1.503906 1.25 -1.679688 1.375 -1.859375 C 1.507812 -2.046875 1.578125 -2.222656 1.578125 -2.390625 C 1.578125 -2.484375 1.550781 -2.554688 1.5 -2.609375 C 1.457031 -2.671875 1.394531 -2.703125 1.3125 -2.703125 C 1.21875 -2.703125 1.144531 -2.664062 1.09375 -2.59375 C 1.050781 -2.519531 1.03125 -2.410156 1.03125 -2.265625 L 0.140625 -2.265625 C 0.148438 -2.535156 0.210938 -2.757812 0.328125 -2.9375 C 0.441406 -3.125 0.585938 -3.257812 0.765625 -3.34375 C 0.941406 -3.425781 1.140625 -3.46875 1.359375 -3.46875 C 1.742188 -3.46875 2.03125 -3.375 2.21875 -3.1875 C 2.40625 -3 2.5 -2.753906 2.5 -2.453125 C 2.5 -2.128906 2.390625 -1.828125 2.171875 -1.546875 C 1.953125 -1.265625 1.679688 -1.007812 1.359375 -0.78125 L 2.53125 -0.78125 L 2.53125 -0.046875 L 0.15625 -0.046875 Z M 0.15625 -0.734375 "/></g></g></g></svg>