<svg xmlns="http://www.w3.org/2000/svg" xmlns:xlink="http://www.w3.org/1999/xlink" width="100" zoomAndPan="magnify" viewBox="0 0 75 30.000001" height="40" preserveAspectRatio="xMidYMid meet" version="1.0"><defs><g/><clipPath id="id1"><path d="M 19 22 L 21 22 L 21 24.707031 L 19 24.707031 Z M 19 22 " clip-rule="nonzero"/></clipPath><clipPath id="id2"><path d="M 27 15 L 28.921875 15 L 28.921875 17 L 27 17 Z M 27 15 " clip-rule="nonzero"/></clipPath></defs><path fill="#33348e" d="M 19.851562 11.871094 C 21.925781 11.871094 23.617188 13.558594 23.617188 15.632812 C 23.617188 17.707031 21.925781 19.398438 19.851562 19.398438 C 17.78125 19.398438 16.089844 17.707031 16.089844 15.632812 C 16.089844 13.558594 17.78125 11.871094 19.851562 11.871094 Z M 19.851562 11.871094 " fill-opacity="1" fill-rule="evenodd"/><path fill="#cc2229" d="M 18 8.722656 L 18.460938 7.996094 L 19.851562 8.792969 L 21.320312 8.015625 L 21.707031 8.722656 L 20.414062 9.421875 L 20.414062 11.808594 L 19.292969 11.808594 L 19.292969 9.421875 Z M 18 8.722656 " fill-opacity="1" fill-rule="evenodd"/><path fill="#33348e" d="M 12.945312 13.785156 L 12.546875 13.027344 L 13.933594 12.21875 L 13.996094 10.558594 L 14.796875 10.578125 L 14.757812 12.046875 L 16.824219 13.242188 L 16.265625 14.210938 L 14.195312 13.019531 Z M 12.945312 13.785156 " fill-opacity="1" fill-rule="evenodd"/><path fill="#cc2229" d="M 14.792969 20.695312 L 13.933594 20.660156 L 13.929688 19.054688 L 12.523438 18.171875 L 12.941406 17.484375 L 14.191406 18.253906 L 16.261719 17.0625 L 16.820312 18.03125 L 14.753906 19.226562 Z M 26.765625 17.488281 L 27.160156 18.25 L 25.773438 19.054688 L 25.710938 20.714844 L 24.910156 20.695312 L 24.949219 19.226562 L 22.882812 18.035156 L 23.445312 17.0625 L 25.511719 18.257812 Z M 26.765625 17.488281 " fill-opacity="1" fill-rule="evenodd"/><path fill="#33348e" d="M 24.921875 10.578125 L 25.777344 10.613281 L 25.785156 12.21875 L 27.191406 13.101562 L 26.773438 13.789062 L 25.519531 13.019531 L 23.453125 14.210938 L 22.890625 13.242188 L 24.960938 12.046875 Z M 18 22.546875 L 18.460938 23.269531 L 19.851562 22.472656 L 21.320312 23.25 L 21.707031 22.542969 L 20.414062 21.84375 L 20.414062 19.457031 L 19.292969 19.457031 L 19.292969 21.84375 Z M 18 22.546875 " fill-opacity="1" fill-rule="evenodd"/><path fill="#33348e" d="M 26.589844 11.164062 C 26.929688 11.164062 27.203125 11.421875 27.203125 11.734375 C 27.203125 12.046875 26.929688 12.304688 26.589844 12.304688 C 26.253906 12.304688 25.976562 12.046875 25.976562 11.734375 C 25.976562 11.421875 26.253906 11.164062 26.589844 11.164062 Z M 26.589844 11.164062 " fill-opacity="1" fill-rule="evenodd"/><path fill="#fff22d" d="M 23.660156 15.074219 L 24.265625 15.074219 L 24.265625 14.777344 L 26.046875 15.074219 L 26.769531 13.789062 L 27.484375 14.191406 L 26.746094 15.636719 L 27.472656 17.109375 L 26.765625 17.488281 L 26.046875 16.195312 L 24.265625 16.488281 L 24.265625 16.195312 L 23.660156 16.195312 Z M 23.660156 15.074219 " fill-opacity="1" fill-rule="evenodd"/><path fill="#6fa291" d="M 16.046875 15.074219 L 15.4375 15.074219 L 15.4375 14.777344 L 13.65625 15.074219 L 12.9375 13.789062 L 12.21875 14.191406 L 12.957031 15.636719 L 12.230469 17.109375 L 12.941406 17.488281 L 13.65625 16.195312 L 15.4375 16.488281 L 15.4375 16.195312 L 16.046875 16.195312 Z M 16.046875 15.074219 " fill-opacity="1" fill-rule="evenodd"/><path fill="#fff22d" d="M 17.46875 18.644531 L 17.164062 19.171875 L 16.910156 19.023438 L 16.273438 20.714844 L 14.800781 20.695312 L 14.792969 21.519531 L 16.410156 21.601562 L 17.324219 22.96875 L 18.007812 22.542969 L 17.242188 21.273438 L 18.386719 19.878906 L 18.132812 19.734375 L 18.4375 19.207031 Z M 17.46875 18.644531 " fill-opacity="1" fill-rule="evenodd"/><path fill="#6fa291" d="M 21.265625 19.207031 L 21.570312 19.734375 L 21.316406 19.882812 L 22.460938 21.277344 L 21.707031 22.542969 L 22.417969 22.960938 L 23.296875 21.601562 L 24.9375 21.492188 L 24.910156 20.691406 L 23.429688 20.714844 L 22.792969 19.027344 L 22.539062 19.175781 L 22.234375 18.648438 Z M 22.25 12.628906 L 22.554688 12.101562 L 22.808594 12.25 L 23.445312 10.558594 L 24.914062 10.578125 L 24.925781 9.753906 L 23.304688 9.675781 L 22.394531 8.308594 L 21.710938 8.730469 L 22.472656 10 L 21.328125 11.394531 L 21.582031 11.542969 L 21.277344 12.070312 Z M 22.25 12.628906 " fill-opacity="1" fill-rule="evenodd"/><path fill="#fff22d" d="M 18.4375 12.058594 L 18.132812 11.53125 L 18.386719 11.382812 L 17.242188 9.988281 L 17.996094 8.722656 L 17.285156 8.304688 L 16.40625 9.664062 L 14.765625 9.773438 L 14.792969 10.578125 L 16.273438 10.550781 L 16.910156 12.238281 L 17.164062 12.09375 L 17.46875 12.621094 Z M 18.4375 12.058594 " fill-opacity="1" fill-rule="evenodd"/><path fill="#6fa291" d="M 24.039062 8.382812 C 24.316406 8.542969 24.410156 8.898438 24.25 9.175781 C 24.089844 9.453125 23.734375 9.546875 23.460938 9.386719 C 23.183594 9.230469 23.085938 8.875 23.246094 8.597656 C 23.40625 8.320312 23.761719 8.226562 24.039062 8.382812 Z M 24.039062 8.382812 " fill-opacity="1" fill-rule="evenodd"/><path fill="#cc2229" d="M 19.851562 7.257812 C 20.171875 7.257812 20.433594 7.519531 20.433594 7.839844 C 20.433594 8.15625 20.171875 8.417969 19.851562 8.417969 C 19.535156 8.417969 19.273438 8.15625 19.273438 7.839844 C 19.273438 7.519531 19.535156 7.257812 19.851562 7.257812 Z M 19.851562 7.257812 " fill-opacity="1" fill-rule="evenodd"/><path fill="#fff22d" d="M 15.667969 8.382812 C 15.941406 8.226562 16.296875 8.320312 16.457031 8.597656 C 16.617188 8.875 16.523438 9.230469 16.246094 9.386719 C 15.96875 9.546875 15.613281 9.453125 15.453125 9.175781 C 15.292969 8.898438 15.390625 8.542969 15.667969 8.382812 Z M 15.667969 8.382812 " fill-opacity="1" fill-rule="evenodd"/><path fill="#33348e" d="M 12.601562 11.453125 C 12.761719 11.175781 13.117188 11.078125 13.394531 11.238281 C 13.671875 11.398438 13.765625 11.753906 13.605469 12.03125 C 13.445312 12.308594 13.089844 12.402344 12.8125 12.242188 C 12.539062 12.082031 12.441406 11.726562 12.601562 11.453125 Z M 12.601562 11.453125 " fill-opacity="1" fill-rule="evenodd"/><path fill="#6fa291" d="M 11.476562 15.632812 C 11.476562 15.316406 11.738281 15.054688 12.054688 15.054688 C 12.375 15.054688 12.636719 15.316406 12.636719 15.632812 C 12.636719 15.953125 12.375 16.214844 12.054688 16.214844 C 11.738281 16.214844 11.476562 15.953125 11.476562 15.632812 Z M 11.476562 15.632812 " fill-opacity="1" fill-rule="evenodd"/><path fill="#cc2229" d="M 12.605469 19.820312 C 12.445312 19.542969 12.539062 19.1875 12.816406 19.027344 C 13.09375 18.867188 13.449219 18.964844 13.609375 19.238281 C 13.769531 19.515625 13.671875 19.871094 13.398438 20.03125 C 13.121094 20.191406 12.765625 20.097656 12.605469 19.820312 Z M 12.605469 19.820312 " fill-opacity="1" fill-rule="evenodd"/><path fill="#fff22d" d="M 15.667969 22.886719 C 15.390625 22.726562 15.296875 22.371094 15.457031 22.09375 C 15.617188 21.816406 15.972656 21.722656 16.25 21.878906 C 16.523438 22.039062 16.621094 22.394531 16.460938 22.671875 C 16.300781 22.949219 15.945312 23.042969 15.667969 22.886719 Z M 15.667969 22.886719 " fill-opacity="1" fill-rule="evenodd"/><g clip-path="url(#id1)"><path fill="#33348e" d="M 19.851562 24.007812 C 19.53125 24.007812 19.273438 23.746094 19.273438 23.425781 C 19.273438 23.105469 19.53125 22.847656 19.851562 22.847656 C 20.171875 22.847656 20.433594 23.105469 20.433594 23.425781 C 20.433594 23.746094 20.171875 24.007812 19.851562 24.007812 Z M 19.851562 24.007812 " fill-opacity="1" fill-rule="evenodd"/></g><path fill="#6fa291" d="M 24.035156 22.882812 C 23.757812 23.042969 23.402344 22.945312 23.246094 22.667969 C 23.085938 22.394531 23.179688 22.039062 23.457031 21.878906 C 23.734375 21.71875 24.089844 21.8125 24.25 22.089844 C 24.40625 22.367188 24.3125 22.722656 24.035156 22.882812 Z M 24.035156 22.882812 " fill-opacity="1" fill-rule="evenodd"/><path fill="#cc2229" d="M 27.101562 19.820312 C 26.941406 20.09375 26.585938 20.191406 26.308594 20.03125 C 26.03125 19.871094 25.9375 19.515625 26.097656 19.238281 C 26.253906 18.960938 26.613281 18.867188 26.886719 19.027344 C 27.164062 19.1875 27.257812 19.542969 27.101562 19.820312 Z M 27.101562 19.820312 " fill-opacity="1" fill-rule="evenodd"/><g clip-path="url(#id2)"><path fill="#fff22d" d="M 28.226562 15.636719 C 28.226562 15.953125 27.964844 16.214844 27.644531 16.214844 C 27.484375 16.214844 27.347656 16.15625 27.238281 16.042969 C 27.125 15.929688 27.066406 15.796875 27.066406 15.636719 C 27.066406 15.316406 27.328125 15.054688 27.644531 15.054688 C 27.964844 15.054688 28.226562 15.316406 28.226562 15.636719 Z M 28.226562 15.636719 " fill-opacity="1" fill-rule="evenodd"/></g><path fill="#00acec" d="M 17.886719 12.230469 C 19.761719 11.148438 22.171875 11.796875 23.253906 13.671875 C 24.335938 15.542969 23.691406 17.957031 21.816406 19.039062 C 19.945312 20.121094 17.53125 19.472656 16.449219 17.597656 C 15.367188 15.726562 16.015625 13.3125 17.886719 12.230469 Z M 19.40625 19.210938 C 18.664062 19.160156 18.191406 18.890625 17.621094 18.421875 C 17.867188 18.203125 18.136719 18.023438 18.4375 17.886719 C 18.683594 18.390625 18.9375 18.769531 19.40625 19.210938 Z M 19.734375 17.578125 C 19.390625 17.585938 19.054688 17.648438 18.726562 17.765625 C 18.949219 18.214844 19.34375 18.828125 19.734375 19.214844 Z M 20.027344 17.574219 C 20.363281 17.589844 20.699219 17.65625 21.03125 17.773438 C 20.800781 18.230469 20.414062 18.867188 20.027344 19.21875 Z M 21.324219 17.890625 C 21.621094 18.035156 21.894531 18.203125 22.144531 18.417969 C 21.566406 18.890625 21.109375 19.148438 20.378906 19.195312 C 20.835938 18.765625 21.082031 18.429688 21.324219 17.890625 Z M 19.378906 12.074219 C 18.636719 12.125 18.160156 12.394531 17.589844 12.859375 C 17.835938 13.082031 18.109375 13.261719 18.410156 13.398438 C 18.652344 12.890625 18.90625 12.515625 19.378906 12.074219 Z M 19.707031 13.707031 C 19.359375 13.699219 19.023438 13.636719 18.699219 13.519531 C 18.917969 13.066406 19.3125 12.457031 19.707031 12.066406 Z M 20 13.707031 C 20.34375 13.691406 20.675781 13.625 21 13.511719 C 20.773438 13.054688 20.382812 12.417969 20 12.066406 Z M 21.292969 13.394531 C 21.589844 13.25 21.867188 13.078125 22.117188 12.867188 C 21.539062 12.390625 21.078125 12.132812 20.351562 12.085938 C 20.808594 12.515625 21.054688 12.851562 21.292969 13.394531 Z M 16.277344 15.492188 C 16.320312 14.566406 16.714844 13.671875 17.410156 13.027344 C 17.675781 13.273438 17.972656 13.46875 18.289062 13.621094 C 17.992188 14.207031 17.828125 14.832031 17.804688 15.492188 Z M 18.113281 15.496094 C 18.136719 14.875 18.292969 14.292969 18.574219 13.742188 C 18.933594 13.875 19.316406 13.949219 19.703125 13.964844 L 19.707031 15.488281 Z M 21.585938 15.488281 C 21.570312 14.875 21.417969 14.292969 21.132812 13.746094 C 20.757812 13.878906 20.375 13.953125 19.996094 13.96875 L 20 15.488281 Z M 22.304688 13.027344 C 22.5625 13.265625 22.777344 13.539062 22.953125 13.84375 C 23.257812 14.363281 23.410156 14.929688 23.429688 15.492188 L 21.894531 15.488281 C 21.878906 14.855469 21.722656 14.214844 21.417969 13.617188 C 21.742188 13.464844 22.039062 13.265625 22.304688 13.027344 Z M 22.308594 18.246094 C 22.5625 18.007812 22.78125 17.734375 22.957031 17.429688 C 23.257812 16.910156 23.414062 16.34375 23.429688 15.78125 L 21.898438 15.785156 C 21.882812 16.417969 21.726562 17.058594 21.421875 17.65625 C 21.746094 17.8125 22.039062 18.007812 22.308594 18.246094 Z M 21.589844 15.785156 C 21.570312 16.402344 21.417969 16.980469 21.132812 17.527344 C 20.761719 17.394531 20.378906 17.320312 20 17.304688 L 20 15.785156 Z M 18.117188 15.78125 C 18.140625 16.398438 18.292969 16.980469 18.574219 17.53125 C 18.9375 17.398438 19.316406 17.324219 19.703125 17.308594 L 19.707031 15.785156 Z M 16.28125 15.785156 C 16.320312 16.707031 16.71875 17.601562 17.410156 18.25 C 17.679688 18 17.976562 17.804688 18.289062 17.652344 C 17.992188 17.066406 17.828125 16.441406 17.808594 15.785156 Z M 16.28125 15.785156 " fill-opacity="1" fill-rule="evenodd"/><g fill="#000000" fill-opacity="1"><g transform="translate(29.28896, 14.239985)"><g><path d="M 0.78125 -0.375 L 1.765625 -0.375 L 1.765625 0 L 0.3125 0 L 0.3125 -2.890625 L 0.78125 -2.890625 Z M 0.78125 -0.375 "/></g></g></g><g fill="#000000" fill-opacity="1"><g transform="translate(31.131755, 14.239985)"><g><path d="M 2.40625 -1.203125 C 2.40625 -1.117188 2.398438 -1.039062 2.390625 -0.96875 L 0.640625 -0.96875 C 0.660156 -0.78125 0.726562 -0.628906 0.84375 -0.515625 C 0.96875 -0.410156 1.117188 -0.359375 1.296875 -0.359375 C 1.546875 -0.359375 1.726562 -0.46875 1.84375 -0.6875 L 2.34375 -0.6875 C 2.28125 -0.46875 2.15625 -0.289062 1.96875 -0.15625 C 1.789062 -0.03125 1.566406 0.03125 1.296875 0.03125 C 1.078125 0.03125 0.878906 -0.015625 0.703125 -0.109375 C 0.535156 -0.203125 0.398438 -0.335938 0.296875 -0.515625 C 0.203125 -0.703125 0.15625 -0.910156 0.15625 -1.140625 C 0.15625 -1.378906 0.203125 -1.585938 0.296875 -1.765625 C 0.390625 -1.941406 0.519531 -2.078125 0.6875 -2.171875 C 0.863281 -2.273438 1.066406 -2.328125 1.296875 -2.328125 C 1.515625 -2.328125 1.707031 -2.28125 1.875 -2.1875 C 2.039062 -2.09375 2.171875 -1.957031 2.265625 -1.78125 C 2.359375 -1.613281 2.40625 -1.421875 2.40625 -1.203125 Z M 1.921875 -1.34375 C 1.910156 -1.519531 1.84375 -1.660156 1.71875 -1.765625 C 1.601562 -1.867188 1.457031 -1.921875 1.28125 -1.921875 C 1.113281 -1.921875 0.972656 -1.867188 0.859375 -1.765625 C 0.742188 -1.660156 0.671875 -1.519531 0.640625 -1.34375 Z M 1.921875 -1.34375 "/></g></g></g><g fill="#000000" fill-opacity="1"><g transform="translate(33.692579, 14.239985)"><g><path d="M 0.15625 -1.15625 C 0.15625 -1.382812 0.203125 -1.585938 0.296875 -1.765625 C 0.390625 -1.941406 0.519531 -2.078125 0.6875 -2.171875 C 0.851562 -2.273438 1.035156 -2.328125 1.234375 -2.328125 C 1.410156 -2.328125 1.566406 -2.289062 1.703125 -2.21875 C 1.835938 -2.144531 1.945312 -2.054688 2.03125 -1.953125 L 2.03125 -2.296875 L 2.5 -2.296875 L 2.5 0 L 2.03125 0 L 2.03125 -0.34375 C 1.945312 -0.226562 1.832031 -0.132812 1.6875 -0.0625 C 1.550781 0 1.394531 0.03125 1.21875 0.03125 C 1.03125 0.03125 0.851562 -0.015625 0.6875 -0.109375 C 0.519531 -0.210938 0.390625 -0.351562 0.296875 -0.53125 C 0.203125 -0.71875 0.15625 -0.925781 0.15625 -1.15625 Z M 2.03125 -1.140625 C 2.03125 -1.304688 1.992188 -1.445312 1.921875 -1.5625 C 1.859375 -1.675781 1.773438 -1.765625 1.671875 -1.828125 C 1.566406 -1.890625 1.453125 -1.921875 1.328125 -1.921875 C 1.210938 -1.921875 1.097656 -1.890625 0.984375 -1.828125 C 0.878906 -1.765625 0.796875 -1.675781 0.734375 -1.5625 C 0.671875 -1.445312 0.640625 -1.3125 0.640625 -1.15625 C 0.640625 -1 0.671875 -0.859375 0.734375 -0.734375 C 0.796875 -0.617188 0.878906 -0.53125 0.984375 -0.46875 C 1.097656 -0.40625 1.210938 -0.375 1.328125 -0.375 C 1.453125 -0.375 1.566406 -0.40625 1.671875 -0.46875 C 1.773438 -0.53125 1.859375 -0.617188 1.921875 -0.734375 C 1.992188 -0.847656 2.03125 -0.984375 2.03125 -1.140625 Z M 2.03125 -1.140625 "/></g></g></g><g fill="#000000" fill-opacity="1"><g transform="translate(36.506582, 14.239985)"><g><path d="M 0.15625 -1.15625 C 0.15625 -1.382812 0.203125 -1.585938 0.296875 -1.765625 C 0.390625 -1.941406 0.519531 -2.078125 0.6875 -2.171875 C 0.851562 -2.273438 1.035156 -2.328125 1.234375 -2.328125 C 1.390625 -2.328125 1.539062 -2.289062 1.6875 -2.21875 C 1.832031 -2.15625 1.945312 -2.070312 2.03125 -1.96875 L 2.03125 -3.078125 L 2.5 -3.078125 L 2.5 0 L 2.03125 0 L 2.03125 -0.34375 C 1.945312 -0.226562 1.835938 -0.132812 1.703125 -0.0625 C 1.566406 0 1.410156 0.03125 1.234375 0.03125 C 1.035156 0.03125 0.851562 -0.015625 0.6875 -0.109375 C 0.519531 -0.210938 0.390625 -0.351562 0.296875 -0.53125 C 0.203125 -0.71875 0.15625 -0.925781 0.15625 -1.15625 Z M 2.03125 -1.140625 C 2.03125 -1.304688 1.992188 -1.445312 1.921875 -1.5625 C 1.859375 -1.675781 1.773438 -1.765625 1.671875 -1.828125 C 1.566406 -1.890625 1.453125 -1.921875 1.328125 -1.921875 C 1.210938 -1.921875 1.097656 -1.890625 0.984375 -1.828125 C 0.878906 -1.765625 0.796875 -1.675781 0.734375 -1.5625 C 0.671875 -1.445312 0.640625 -1.3125 0.640625 -1.15625 C 0.640625 -1 0.671875 -0.859375 0.734375 -0.734375 C 0.796875 -0.617188 0.878906 -0.53125 0.984375 -0.46875 C 1.097656 -0.40625 1.210938 -0.375 1.328125 -0.375 C 1.453125 -0.375 1.566406 -0.40625 1.671875 -0.46875 C 1.773438 -0.53125 1.859375 -0.617188 1.921875 -0.734375 C 1.992188 -0.847656 2.03125 -0.984375 2.03125 -1.140625 Z M 2.03125 -1.140625 "/></g></g></g><g fill="#000000" fill-opacity="1"><g transform="translate(39.320584, 14.239985)"><g><path d="M 2.40625 -1.203125 C 2.40625 -1.117188 2.398438 -1.039062 2.390625 -0.96875 L 0.640625 -0.96875 C 0.660156 -0.78125 0.726562 -0.628906 0.84375 -0.515625 C 0.96875 -0.410156 1.117188 -0.359375 1.296875 -0.359375 C 1.546875 -0.359375 1.726562 -0.46875 1.84375 -0.6875 L 2.34375 -0.6875 C 2.28125 -0.46875 2.15625 -0.289062 1.96875 -0.15625 C 1.789062 -0.03125 1.566406 0.03125 1.296875 0.03125 C 1.078125 0.03125 0.878906 -0.015625 0.703125 -0.109375 C 0.535156 -0.203125 0.398438 -0.335938 0.296875 -0.515625 C 0.203125 -0.703125 0.15625 -0.910156 0.15625 -1.140625 C 0.15625 -1.378906 0.203125 -1.585938 0.296875 -1.765625 C 0.390625 -1.941406 0.519531 -2.078125 0.6875 -2.171875 C 0.863281 -2.273438 1.066406 -2.328125 1.296875 -2.328125 C 1.515625 -2.328125 1.707031 -2.28125 1.875 -2.1875 C 2.039062 -2.09375 2.171875 -1.957031 2.265625 -1.78125 C 2.359375 -1.613281 2.40625 -1.421875 2.40625 -1.203125 Z M 1.921875 -1.34375 C 1.910156 -1.519531 1.84375 -1.660156 1.71875 -1.765625 C 1.601562 -1.867188 1.457031 -1.921875 1.28125 -1.921875 C 1.113281 -1.921875 0.972656 -1.867188 0.859375 -1.765625 C 0.742188 -1.660156 0.671875 -1.519531 0.640625 -1.34375 Z M 1.921875 -1.34375 "/></g></g></g><g fill="#000000" fill-opacity="1"><g transform="translate(41.881408, 14.239985)"><g><path d="M 0.78125 -1.953125 C 0.851562 -2.066406 0.945312 -2.15625 1.0625 -2.21875 C 1.175781 -2.289062 1.3125 -2.328125 1.46875 -2.328125 L 1.46875 -1.84375 L 1.34375 -1.84375 C 1.164062 -1.84375 1.023438 -1.789062 0.921875 -1.6875 C 0.828125 -1.59375 0.78125 -1.429688 0.78125 -1.203125 L 0.78125 0 L 0.3125 0 L 0.3125 -2.296875 L 0.78125 -2.296875 Z M 0.78125 -1.953125 "/></g></g></g><g fill="#000000" fill-opacity="1"><g transform="translate(43.475178, 14.239985)"><g><path d="M 1.140625 0.03125 C 0.960938 0.03125 0.800781 0 0.65625 -0.0625 C 0.507812 -0.125 0.394531 -0.210938 0.3125 -0.328125 C 0.238281 -0.441406 0.195312 -0.566406 0.1875 -0.703125 L 0.671875 -0.703125 C 0.679688 -0.609375 0.726562 -0.523438 0.8125 -0.453125 C 0.894531 -0.390625 1.003906 -0.359375 1.140625 -0.359375 C 1.265625 -0.359375 1.363281 -0.382812 1.4375 -0.4375 C 1.507812 -0.488281 1.546875 -0.554688 1.546875 -0.640625 C 1.546875 -0.722656 1.503906 -0.785156 1.421875 -0.828125 C 1.347656 -0.867188 1.222656 -0.914062 1.046875 -0.96875 C 0.867188 -1.007812 0.726562 -1.050781 0.625 -1.09375 C 0.519531 -1.144531 0.425781 -1.210938 0.34375 -1.296875 C 0.257812 -1.390625 0.21875 -1.515625 0.21875 -1.671875 C 0.21875 -1.785156 0.253906 -1.894531 0.328125 -2 C 0.398438 -2.101562 0.503906 -2.179688 0.640625 -2.234375 C 0.773438 -2.296875 0.929688 -2.328125 1.109375 -2.328125 C 1.367188 -2.328125 1.578125 -2.257812 1.734375 -2.125 C 1.890625 -2 1.972656 -1.820312 1.984375 -1.59375 L 1.515625 -1.59375 C 1.503906 -1.695312 1.460938 -1.773438 1.390625 -1.828125 C 1.316406 -1.890625 1.21875 -1.921875 1.09375 -1.921875 C 0.96875 -1.921875 0.867188 -1.894531 0.796875 -1.84375 C 0.734375 -1.800781 0.703125 -1.742188 0.703125 -1.671875 C 0.703125 -1.609375 0.722656 -1.554688 0.765625 -1.515625 C 0.804688 -1.472656 0.859375 -1.441406 0.921875 -1.421875 C 0.992188 -1.398438 1.09375 -1.367188 1.21875 -1.328125 C 1.382812 -1.285156 1.519531 -1.238281 1.625 -1.1875 C 1.726562 -1.144531 1.816406 -1.078125 1.890625 -0.984375 C 1.972656 -0.898438 2.015625 -0.785156 2.015625 -0.640625 C 2.015625 -0.503906 1.976562 -0.382812 1.90625 -0.28125 C 1.832031 -0.1875 1.726562 -0.109375 1.59375 -0.046875 C 1.46875 0.00390625 1.316406 0.03125 1.140625 0.03125 Z M 1.140625 0.03125 "/></g></g></g><g fill="#000000" fill-opacity="1"><g transform="translate(45.691517, 14.239985)"><g><path d="M 1.5 -2.328125 C 1.675781 -2.328125 1.832031 -2.289062 1.96875 -2.21875 C 2.101562 -2.144531 2.207031 -2.03125 2.28125 -1.875 C 2.363281 -1.726562 2.40625 -1.550781 2.40625 -1.34375 L 2.40625 0 L 1.9375 0 L 1.9375 -1.28125 C 1.9375 -1.488281 1.882812 -1.644531 1.78125 -1.75 C 1.675781 -1.863281 1.535156 -1.921875 1.359375 -1.921875 C 1.179688 -1.921875 1.039062 -1.863281 0.9375 -1.75 C 0.832031 -1.644531 0.78125 -1.488281 0.78125 -1.28125 L 0.78125 0 L 0.3125 0 L 0.3125 -3.078125 L 0.78125 -3.078125 L 0.78125 -2.03125 C 0.863281 -2.125 0.96875 -2.195312 1.09375 -2.25 C 1.21875 -2.300781 1.351562 -2.328125 1.5 -2.328125 Z M 1.5 -2.328125 "/></g></g></g><g fill="#000000" fill-opacity="1"><g transform="translate(48.385155, 14.239985)"><g><path d="M 0.546875 -2.59375 C 0.460938 -2.59375 0.390625 -2.617188 0.328125 -2.671875 C 0.273438 -2.734375 0.25 -2.804688 0.25 -2.890625 C 0.25 -2.984375 0.273438 -3.054688 0.328125 -3.109375 C 0.390625 -3.171875 0.460938 -3.203125 0.546875 -3.203125 C 0.628906 -3.203125 0.703125 -3.171875 0.765625 -3.109375 C 0.828125 -3.054688 0.859375 -2.984375 0.859375 -2.890625 C 0.859375 -2.804688 0.828125 -2.734375 0.765625 -2.671875 C 0.703125 -2.617188 0.628906 -2.59375 0.546875 -2.59375 Z M 0.78125 -2.296875 L 0.78125 0 L 0.3125 0 L 0.3125 -2.296875 Z M 0.78125 -2.296875 "/></g></g></g><g fill="#000000" fill-opacity="1"><g transform="translate(49.480875, 14.239985)"><g><path d="M 0.78125 -1.953125 C 0.863281 -2.054688 0.972656 -2.144531 1.109375 -2.21875 C 1.253906 -2.289062 1.410156 -2.328125 1.578125 -2.328125 C 1.785156 -2.328125 1.96875 -2.273438 2.125 -2.171875 C 2.289062 -2.078125 2.421875 -1.941406 2.515625 -1.765625 C 2.609375 -1.585938 2.65625 -1.382812 2.65625 -1.15625 C 2.65625 -0.925781 2.609375 -0.71875 2.515625 -0.53125 C 2.421875 -0.351562 2.289062 -0.210938 2.125 -0.109375 C 1.96875 -0.015625 1.785156 0.03125 1.578125 0.03125 C 1.410156 0.03125 1.257812 0 1.125 -0.0625 C 0.988281 -0.132812 0.875 -0.222656 0.78125 -0.328125 L 0.78125 1.09375 L 0.3125 1.09375 L 0.3125 -2.296875 L 0.78125 -2.296875 Z M 2.171875 -1.15625 C 2.171875 -1.3125 2.140625 -1.445312 2.078125 -1.5625 C 2.015625 -1.675781 1.925781 -1.765625 1.8125 -1.828125 C 1.707031 -1.890625 1.597656 -1.921875 1.484375 -1.921875 C 1.359375 -1.921875 1.242188 -1.890625 1.140625 -1.828125 C 1.035156 -1.765625 0.945312 -1.675781 0.875 -1.5625 C 0.8125 -1.445312 0.78125 -1.304688 0.78125 -1.140625 C 0.78125 -0.984375 0.8125 -0.847656 0.875 -0.734375 C 0.945312 -0.617188 1.035156 -0.53125 1.140625 -0.46875 C 1.242188 -0.40625 1.359375 -0.375 1.484375 -0.375 C 1.597656 -0.375 1.707031 -0.40625 1.8125 -0.46875 C 1.925781 -0.53125 2.015625 -0.617188 2.078125 -0.734375 C 2.140625 -0.859375 2.171875 -1 2.171875 -1.15625 Z M 2.171875 -1.15625 "/></g></g></g><g fill="#000000" fill-opacity="1"><g transform="translate(32.617938, 19.773871)"><g><path d="M 0.859375 -1.90625 L 0.859375 -0.640625 C 0.859375 -0.546875 0.878906 -0.476562 0.921875 -0.4375 C 0.960938 -0.40625 1.03125 -0.390625 1.125 -0.390625 L 1.421875 -0.390625 L 1.421875 0 L 1.046875 0 C 0.835938 0 0.675781 -0.046875 0.5625 -0.140625 C 0.445312 -0.242188 0.390625 -0.410156 0.390625 -0.640625 L 0.390625 -1.90625 L 0.109375 -1.90625 L 0.109375 -2.296875 L 0.390625 -2.296875 L 0.390625 -2.859375 L 0.859375 -2.859375 L 0.859375 -2.296875 L 1.421875 -2.296875 L 1.421875 -1.90625 Z M 0.859375 -1.90625 "/></g></g></g><g fill="#000000" fill-opacity="1"><g transform="translate(34.161904, 19.773871)"><g><path d="M 0.78125 -1.953125 C 0.851562 -2.066406 0.945312 -2.15625 1.0625 -2.21875 C 1.175781 -2.289062 1.3125 -2.328125 1.46875 -2.328125 L 1.46875 -1.84375 L 1.34375 -1.84375 C 1.164062 -1.84375 1.023438 -1.789062 0.921875 -1.6875 C 0.828125 -1.59375 0.78125 -1.429688 0.78125 -1.203125 L 0.78125 0 L 0.3125 0 L 0.3125 -2.296875 L 0.78125 -2.296875 Z M 0.78125 -1.953125 "/></g></g></g><g fill="#000000" fill-opacity="1"><g transform="translate(35.755675, 19.773871)"><g><path d="M 0.15625 -1.15625 C 0.15625 -1.382812 0.203125 -1.585938 0.296875 -1.765625 C 0.390625 -1.941406 0.519531 -2.078125 0.6875 -2.171875 C 0.851562 -2.273438 1.035156 -2.328125 1.234375 -2.328125 C 1.410156 -2.328125 1.566406 -2.289062 1.703125 -2.21875 C 1.835938 -2.144531 1.945312 -2.054688 2.03125 -1.953125 L 2.03125 -2.296875 L 2.5 -2.296875 L 2.5 0 L 2.03125 0 L 2.03125 -0.34375 C 1.945312 -0.226562 1.832031 -0.132812 1.6875 -0.0625 C 1.550781 0 1.394531 0.03125 1.21875 0.03125 C 1.03125 0.03125 0.851562 -0.015625 0.6875 -0.109375 C 0.519531 -0.210938 0.390625 -0.351562 0.296875 -0.53125 C 0.203125 -0.71875 0.15625 -0.925781 0.15625 -1.15625 Z M 2.03125 -1.140625 C 2.03125 -1.304688 1.992188 -1.445312 1.921875 -1.5625 C 1.859375 -1.675781 1.773438 -1.765625 1.671875 -1.828125 C 1.566406 -1.890625 1.453125 -1.921875 1.328125 -1.921875 C 1.210938 -1.921875 1.097656 -1.890625 0.984375 -1.828125 C 0.878906 -1.765625 0.796875 -1.675781 0.734375 -1.5625 C 0.671875 -1.445312 0.640625 -1.3125 0.640625 -1.15625 C 0.640625 -1 0.671875 -0.859375 0.734375 -0.734375 C 0.796875 -0.617188 0.878906 -0.53125 0.984375 -0.46875 C 1.097656 -0.40625 1.210938 -0.375 1.328125 -0.375 C 1.453125 -0.375 1.566406 -0.40625 1.671875 -0.46875 C 1.773438 -0.53125 1.859375 -0.617188 1.921875 -0.734375 C 1.992188 -0.847656 2.03125 -0.984375 2.03125 -1.140625 Z M 2.03125 -1.140625 "/></g></g></g><g fill="#000000" fill-opacity="1"><g transform="translate(38.569677, 19.773871)"><g><path d="M 0.546875 -2.59375 C 0.460938 -2.59375 0.390625 -2.617188 0.328125 -2.671875 C 0.273438 -2.734375 0.25 -2.804688 0.25 -2.890625 C 0.25 -2.984375 0.273438 -3.054688 0.328125 -3.109375 C 0.390625 -3.171875 0.460938 -3.203125 0.546875 -3.203125 C 0.628906 -3.203125 0.703125 -3.171875 0.765625 -3.109375 C 0.828125 -3.054688 0.859375 -2.984375 0.859375 -2.890625 C 0.859375 -2.804688 0.828125 -2.734375 0.765625 -2.671875 C 0.703125 -2.617188 0.628906 -2.59375 0.546875 -2.59375 Z M 0.78125 -2.296875 L 0.78125 0 L 0.3125 0 L 0.3125 -2.296875 Z M 0.78125 -2.296875 "/></g></g></g><g fill="#000000" fill-opacity="1"><g transform="translate(39.665397, 19.773871)"><g><path d="M 1.46875 -2.328125 C 1.644531 -2.328125 1.804688 -2.289062 1.953125 -2.21875 C 2.097656 -2.144531 2.207031 -2.03125 2.28125 -1.875 C 2.363281 -1.726562 2.40625 -1.550781 2.40625 -1.34375 L 2.40625 0 L 1.9375 0 L 1.9375 -1.28125 C 1.9375 -1.488281 1.882812 -1.644531 1.78125 -1.75 C 1.675781 -1.863281 1.535156 -1.921875 1.359375 -1.921875 C 1.179688 -1.921875 1.039062 -1.863281 0.9375 -1.75 C 0.832031 -1.644531 0.78125 -1.488281 0.78125 -1.28125 L 0.78125 0 L 0.3125 0 L 0.3125 -2.296875 L 0.78125 -2.296875 L 0.78125 -2.03125 C 0.863281 -2.125 0.960938 -2.195312 1.078125 -2.25 C 1.203125 -2.300781 1.332031 -2.328125 1.46875 -2.328125 Z M 1.46875 -2.328125 "/></g></g></g><g fill="#000000" fill-opacity="1"><g transform="translate(42.359035, 19.773871)"><g><path d="M 0.546875 -2.59375 C 0.460938 -2.59375 0.390625 -2.617188 0.328125 -2.671875 C 0.273438 -2.734375 0.25 -2.804688 0.25 -2.890625 C 0.25 -2.984375 0.273438 -3.054688 0.328125 -3.109375 C 0.390625 -3.171875 0.460938 -3.203125 0.546875 -3.203125 C 0.628906 -3.203125 0.703125 -3.171875 0.765625 -3.109375 C 0.828125 -3.054688 0.859375 -2.984375 0.859375 -2.890625 C 0.859375 -2.804688 0.828125 -2.734375 0.765625 -2.671875 C 0.703125 -2.617188 0.628906 -2.59375 0.546875 -2.59375 Z M 0.78125 -2.296875 L 0.78125 0 L 0.3125 0 L 0.3125 -2.296875 Z M 0.78125 -2.296875 "/></g></g></g><g fill="#000000" fill-opacity="1"><g transform="translate(43.454754, 19.773871)"><g><path d="M 1.46875 -2.328125 C 1.644531 -2.328125 1.804688 -2.289062 1.953125 -2.21875 C 2.097656 -2.144531 2.207031 -2.03125 2.28125 -1.875 C 2.363281 -1.726562 2.40625 -1.550781 2.40625 -1.34375 L 2.40625 0 L 1.9375 0 L 1.9375 -1.28125 C 1.9375 -1.488281 1.882812 -1.644531 1.78125 -1.75 C 1.675781 -1.863281 1.535156 -1.921875 1.359375 -1.921875 C 1.179688 -1.921875 1.039062 -1.863281 0.9375 -1.75 C 0.832031 -1.644531 0.78125 -1.488281 0.78125 -1.28125 L 0.78125 0 L 0.3125 0 L 0.3125 -2.296875 L 0.78125 -2.296875 L 0.78125 -2.03125 C 0.863281 -2.125 0.960938 -2.195312 1.078125 -2.25 C 1.203125 -2.300781 1.332031 -2.328125 1.46875 -2.328125 Z M 1.46875 -2.328125 "/></g></g></g><g fill="#000000" fill-opacity="1"><g transform="translate(46.148392, 19.773871)"><g><path d="M 1.234375 -2.328125 C 1.410156 -2.328125 1.566406 -2.289062 1.703125 -2.21875 C 1.835938 -2.144531 1.945312 -2.054688 2.03125 -1.953125 L 2.03125 -2.296875 L 2.5 -2.296875 L 2.5 0.03125 C 2.5 0.25 2.453125 0.4375 2.359375 0.59375 C 2.273438 0.757812 2.148438 0.890625 1.984375 0.984375 C 1.816406 1.078125 1.617188 1.125 1.390625 1.125 C 1.078125 1.125 0.816406 1.050781 0.609375 0.90625 C 0.410156 0.757812 0.296875 0.5625 0.265625 0.3125 L 0.734375 0.3125 C 0.773438 0.4375 0.851562 0.535156 0.96875 0.609375 C 1.082031 0.679688 1.222656 0.71875 1.390625 0.71875 C 1.578125 0.71875 1.726562 0.660156 1.84375 0.546875 C 1.96875 0.429688 2.03125 0.257812 2.03125 0.03125 L 2.03125 -0.34375 C 1.945312 -0.238281 1.835938 -0.148438 1.703125 -0.078125 C 1.566406 -0.00390625 1.410156 0.03125 1.234375 0.03125 C 1.035156 0.03125 0.851562 -0.015625 0.6875 -0.109375 C 0.519531 -0.210938 0.390625 -0.351562 0.296875 -0.53125 C 0.203125 -0.71875 0.15625 -0.925781 0.15625 -1.15625 C 0.15625 -1.382812 0.203125 -1.585938 0.296875 -1.765625 C 0.390625 -1.941406 0.519531 -2.078125 0.6875 -2.171875 C 0.851562 -2.273438 1.035156 -2.328125 1.234375 -2.328125 Z M 2.03125 -1.140625 C 2.03125 -1.304688 1.992188 -1.445312 1.921875 -1.5625 C 1.859375 -1.675781 1.773438 -1.765625 1.671875 -1.828125 C 1.566406 -1.890625 1.453125 -1.921875 1.328125 -1.921875 C 1.210938 -1.921875 1.097656 -1.890625 0.984375 -1.828125 C 0.878906 -1.765625 0.796875 -1.675781 0.734375 -1.5625 C 0.671875 -1.445312 0.640625 -1.3125 0.640625 -1.15625 C 0.640625 -1 0.671875 -0.859375 0.734375 -0.734375 C 0.796875 -0.617188 0.878906 -0.53125 0.984375 -0.46875 C 1.097656 -0.40625 1.210938 -0.375 1.328125 -0.375 C 1.453125 -0.375 1.566406 -0.40625 1.671875 -0.46875 C 1.773438 -0.53125 1.859375 -0.617188 1.921875 -0.734375 C 1.992188 -0.847656 2.03125 -0.984375 2.03125 -1.140625 Z M 2.03125 -1.140625 "/></g></g></g></svg>