<svg xmlns="http://www.w3.org/2000/svg" xmlns:xlink="http://www.w3.org/1999/xlink" width="500" zoomAndPan="magnify" viewBox="0 0 375 374.999991" height="500" preserveAspectRatio="xMidYMid meet" version="1.0"><defs><g/></defs><path fill="#33348e" d="M 130.425781 102.300781 C 134.625 102.300781 138.046875 105.722656 138.046875 109.921875 C 138.046875 114.121094 134.625 117.546875 130.425781 117.546875 C 126.226562 117.546875 122.800781 114.121094 122.800781 109.921875 C 122.800781 105.722656 126.226562 102.300781 130.425781 102.300781 Z M 130.425781 102.300781 " fill-opacity="1" fill-rule="evenodd"/><path fill="#cc2229" d="M 126.671875 95.921875 L 127.605469 94.453125 L 130.425781 96.070312 L 133.398438 94.496094 L 134.175781 95.925781 L 131.558594 97.339844 L 131.558594 102.175781 L 129.289062 102.175781 L 129.289062 97.339844 Z M 126.671875 95.921875 " fill-opacity="1" fill-rule="evenodd"/><path fill="#33348e" d="M 116.433594 106.183594 L 115.628906 104.640625 L 118.4375 103.007812 L 118.5625 99.644531 L 120.1875 99.6875 L 120.105469 102.660156 L 124.292969 105.078125 L 123.160156 107.042969 L 118.972656 104.625 Z M 116.433594 106.183594 " fill-opacity="1" fill-rule="evenodd"/><path fill="#cc2229" d="M 120.175781 120.175781 L 118.4375 120.101562 L 118.429688 116.851562 L 115.578125 115.0625 L 116.425781 113.675781 L 118.960938 115.234375 L 123.148438 112.816406 L 124.285156 114.78125 L 120.097656 117.199219 Z M 144.421875 113.679688 L 145.230469 115.222656 L 142.417969 116.855469 L 142.292969 120.21875 L 140.667969 120.175781 L 140.75 117.203125 L 136.5625 114.785156 L 137.699219 112.820312 L 141.886719 115.238281 Z M 144.421875 113.679688 " fill-opacity="1" fill-rule="evenodd"/><path fill="#33348e" d="M 140.691406 99.683594 L 142.429688 99.757812 L 142.4375 103.007812 L 145.289062 104.796875 L 144.441406 106.183594 L 141.90625 104.625 L 137.71875 107.042969 L 136.582031 105.078125 L 140.769531 102.660156 Z M 126.671875 123.921875 L 127.605469 125.390625 L 130.425781 123.773438 L 133.398438 125.347656 L 134.175781 123.917969 L 131.5625 122.503906 L 131.5625 117.667969 L 129.289062 117.667969 L 129.289062 122.503906 Z M 126.671875 123.921875 " fill-opacity="1" fill-rule="evenodd"/><path fill="#33348e" d="M 144.070312 100.875 C 144.753906 100.875 145.3125 101.390625 145.3125 102.027344 C 145.3125 102.660156 144.753906 103.179688 144.070312 103.179688 C 143.386719 103.179688 142.828125 102.660156 142.828125 102.027344 C 142.828125 101.390625 143.386719 100.875 144.070312 100.875 Z M 144.070312 100.875 " fill-opacity="1" fill-rule="evenodd"/><path fill="#fff22d" d="M 138.132812 108.789062 L 139.367188 108.789062 L 139.367188 108.191406 L 142.972656 108.789062 L 144.429688 106.1875 L 145.882812 107.003906 L 144.386719 109.925781 L 145.859375 112.914062 L 144.425781 113.679688 L 142.972656 111.058594 L 139.367188 111.652344 L 139.367188 111.058594 L 138.132812 111.058594 Z M 138.132812 108.789062 " fill-opacity="1" fill-rule="evenodd"/><path fill="#6fa291" d="M 122.714844 108.789062 L 121.480469 108.789062 L 121.480469 108.191406 L 117.875 108.789062 L 116.417969 106.1875 L 114.964844 107.003906 L 116.460938 109.925781 L 114.988281 112.914062 L 116.425781 113.679688 L 117.875 111.058594 L 121.480469 111.652344 L 121.480469 111.058594 L 122.714844 111.058594 Z M 122.714844 108.789062 " fill-opacity="1" fill-rule="evenodd"/><path fill="#fff22d" d="M 125.597656 116.023438 L 124.980469 117.089844 L 124.464844 116.792969 L 123.175781 120.214844 L 120.195312 120.175781 L 120.175781 121.84375 L 123.453125 122.007812 L 125.304688 124.777344 L 126.6875 123.914062 L 125.140625 121.347656 L 127.457031 118.523438 L 126.945312 118.226562 L 127.5625 117.15625 Z M 125.597656 116.023438 " fill-opacity="1" fill-rule="evenodd"/><path fill="#6fa291" d="M 133.285156 117.164062 L 133.902344 118.230469 L 133.386719 118.527344 L 135.707031 121.351562 L 134.183594 123.917969 L 135.617188 124.765625 L 137.398438 122.007812 L 140.722656 121.792969 L 140.667969 120.164062 L 137.671875 120.21875 L 136.382812 116.796875 L 135.871094 117.09375 L 135.253906 116.027344 Z M 135.277344 103.839844 L 135.894531 102.769531 L 136.410156 103.070312 L 137.699219 99.648438 L 140.679688 99.6875 L 140.699219 98.019531 L 137.421875 97.855469 L 135.570312 95.085938 L 134.191406 95.945312 L 135.734375 98.511719 L 133.417969 101.339844 L 133.929688 101.636719 L 133.3125 102.703125 Z M 135.277344 103.839844 " fill-opacity="1" fill-rule="evenodd"/><path fill="#fff22d" d="M 127.558594 102.683594 L 126.941406 101.617188 L 127.457031 101.316406 L 125.140625 98.492188 L 126.664062 95.929688 L 125.226562 95.082031 L 123.445312 97.835938 L 120.125 98.054688 L 120.179688 99.679688 L 123.175781 99.628906 L 124.464844 103.046875 L 124.976562 102.75 L 125.59375 103.820312 Z M 127.558594 102.683594 " fill-opacity="1" fill-rule="evenodd"/><path fill="#6fa291" d="M 138.90625 95.242188 C 139.464844 95.566406 139.65625 96.285156 139.335938 96.84375 C 139.011719 97.40625 138.289062 97.597656 137.730469 97.273438 C 137.171875 96.953125 136.976562 96.230469 137.300781 95.671875 C 137.625 95.113281 138.34375 94.917969 138.90625 95.242188 Z M 138.90625 95.242188 " fill-opacity="1" fill-rule="evenodd"/><path fill="#cc2229" d="M 130.425781 92.960938 C 131.074219 92.960938 131.601562 93.488281 131.601562 94.136719 C 131.601562 94.78125 131.074219 95.308594 130.425781 95.308594 C 129.78125 95.308594 129.253906 94.78125 129.253906 94.136719 C 129.253906 93.488281 129.78125 92.960938 130.425781 92.960938 Z M 130.425781 92.960938 " fill-opacity="1" fill-rule="evenodd"/><path fill="#fff22d" d="M 121.945312 95.242188 C 122.507812 94.917969 123.226562 95.109375 123.550781 95.671875 C 123.875 96.230469 123.679688 96.953125 123.121094 97.273438 C 122.5625 97.597656 121.839844 97.40625 121.515625 96.84375 C 121.195312 96.285156 121.386719 95.566406 121.945312 95.242188 Z M 121.945312 95.242188 " fill-opacity="1" fill-rule="evenodd"/><path fill="#33348e" d="M 115.742188 101.453125 C 116.0625 100.894531 116.785156 100.699219 117.34375 101.023438 C 117.90625 101.347656 118.097656 102.066406 117.773438 102.628906 C 117.453125 103.1875 116.730469 103.378906 116.171875 103.058594 C 115.609375 102.734375 115.417969 102.011719 115.742188 101.453125 Z M 115.742188 101.453125 " fill-opacity="1" fill-rule="evenodd"/><path fill="#6fa291" d="M 113.460938 109.925781 C 113.460938 109.277344 113.988281 108.75 114.632812 108.75 C 115.28125 108.75 115.808594 109.277344 115.808594 109.925781 C 115.808594 110.570312 115.28125 111.097656 114.632812 111.097656 C 113.988281 111.097656 113.460938 110.570312 113.460938 109.925781 Z M 113.460938 109.925781 " fill-opacity="1" fill-rule="evenodd"/><path fill="#cc2229" d="M 115.746094 118.402344 C 115.425781 117.84375 115.617188 117.121094 116.175781 116.796875 C 116.738281 116.476562 117.457031 116.667969 117.78125 117.226562 C 118.105469 117.789062 117.910156 118.507812 117.351562 118.832031 C 116.792969 119.15625 116.070312 118.960938 115.746094 118.402344 Z M 115.746094 118.402344 " fill-opacity="1" fill-rule="evenodd"/><path fill="#fff22d" d="M 121.953125 124.609375 C 121.390625 124.285156 121.199219 123.566406 121.523438 123.007812 C 121.84375 122.445312 122.566406 122.253906 123.125 122.578125 C 123.6875 122.898438 123.878906 123.621094 123.554688 124.179688 C 123.230469 124.738281 122.511719 124.933594 121.953125 124.609375 Z M 121.953125 124.609375 " fill-opacity="1" fill-rule="evenodd"/><path fill="#33348e" d="M 130.425781 126.878906 C 129.777344 126.878906 129.25 126.351562 129.25 125.707031 C 129.25 125.058594 129.777344 124.53125 130.425781 124.53125 C 131.070312 124.53125 131.597656 125.058594 131.597656 125.707031 C 131.597656 126.351562 131.070312 126.878906 130.425781 126.878906 Z M 130.425781 126.878906 " fill-opacity="1" fill-rule="evenodd"/><path fill="#6fa291" d="M 138.898438 124.601562 C 138.339844 124.925781 137.617188 124.734375 137.292969 124.171875 C 136.972656 123.613281 137.164062 122.894531 137.722656 122.570312 C 138.285156 122.246094 139.003906 122.4375 139.328125 123 C 139.652344 123.558594 139.457031 124.28125 138.898438 124.601562 Z M 138.898438 124.601562 " fill-opacity="1" fill-rule="evenodd"/><path fill="#cc2229" d="M 145.105469 118.398438 C 144.78125 118.960938 144.058594 119.152344 143.5 118.828125 C 142.941406 118.503906 142.746094 117.785156 143.070312 117.226562 C 143.394531 116.664062 144.113281 116.472656 144.675781 116.796875 C 145.234375 117.117188 145.425781 117.839844 145.105469 118.398438 Z M 145.105469 118.398438 " fill-opacity="1" fill-rule="evenodd"/><path fill="#fff22d" d="M 147.382812 109.925781 C 147.382812 110.574219 146.855469 111.101562 146.210938 111.101562 C 146.054688 111.101562 145.90625 111.070312 145.761719 111.011719 C 145.617188 110.949219 145.492188 110.867188 145.378906 110.753906 C 145.269531 110.644531 145.183594 110.519531 145.125 110.375 C 145.066406 110.230469 145.035156 110.082031 145.035156 109.925781 C 145.035156 109.28125 145.5625 108.753906 146.210938 108.753906 C 146.855469 108.753906 147.382812 109.28125 147.382812 109.925781 Z M 147.382812 109.925781 " fill-opacity="1" fill-rule="evenodd"/><path fill="#00acec" d="M 126.449219 103.035156 C 130.242188 100.84375 135.125 102.152344 137.316406 105.945312 C 139.507812 109.742188 138.199219 114.625 134.40625 116.816406 C 130.609375 119.007812 125.726562 117.699219 123.535156 113.90625 C 121.34375 110.109375 122.652344 105.226562 126.449219 103.035156 Z M 129.519531 117.167969 C 128.019531 117.066406 127.058594 116.519531 125.90625 115.574219 C 126.402344 115.125 126.953125 114.761719 127.5625 114.484375 C 128.054688 115.507812 128.570312 116.269531 129.519531 117.167969 Z M 130.1875 113.859375 C 129.488281 113.878906 128.804688 114.003906 128.148438 114.242188 C 128.59375 115.15625 129.394531 116.390625 130.1875 117.179688 Z M 130.78125 113.855469 C 131.460938 113.886719 132.144531 114.019531 132.8125 114.257812 C 132.347656 115.179688 131.558594 116.46875 130.78125 117.183594 Z M 133.402344 114.496094 C 134.003906 114.785156 134.5625 115.128906 135.070312 115.5625 C 133.898438 116.523438 132.96875 117.046875 131.496094 117.140625 C 132.417969 116.269531 132.917969 115.589844 133.402344 114.496094 Z M 129.460938 102.714844 C 127.960938 102.816406 127 103.359375 125.847656 104.308594 C 126.34375 104.757812 126.894531 105.121094 127.503906 105.398438 C 127.996094 104.371094 128.511719 103.609375 129.460938 102.714844 Z M 130.128906 106.019531 C 129.429688 106.003906 128.746094 105.875 128.089844 105.640625 C 128.535156 104.726562 129.335938 103.492188 130.128906 102.703125 Z M 130.722656 106.023438 C 131.417969 105.992188 132.097656 105.859375 132.753906 105.621094 C 132.289062 104.699219 131.5 103.410156 130.722656 102.695312 Z M 133.34375 105.386719 C 133.945312 105.097656 134.503906 104.75 135.011719 104.316406 C 133.839844 103.359375 132.910156 102.835938 131.4375 102.742188 C 132.359375 103.613281 132.859375 104.292969 133.34375 105.386719 Z M 123.1875 109.632812 C 123.269531 107.765625 124.074219 105.945312 125.480469 104.640625 C 126.019531 105.140625 126.621094 105.539062 127.257812 105.847656 C 126.65625 107.03125 126.320312 108.296875 126.277344 109.632812 Z M 126.90625 109.640625 C 126.953125 108.390625 127.261719 107.207031 127.835938 106.09375 C 128.566406 106.359375 129.335938 106.515625 130.121094 106.542969 L 130.128906 109.625 Z M 133.9375 109.628906 C 133.902344 108.382812 133.59375 107.207031 133.019531 106.101562 C 132.261719 106.375 131.488281 106.523438 130.71875 106.550781 L 130.722656 109.625 Z M 135.390625 104.644531 C 135.914062 105.132812 136.351562 105.683594 136.707031 106.300781 C 137.320312 107.355469 137.632812 108.5 137.667969 109.632812 L 134.5625 109.628906 C 134.53125 108.347656 134.21875 107.054688 133.601562 105.84375 C 134.253906 105.527344 134.851562 105.128906 135.390625 104.644531 Z M 135.394531 115.214844 C 135.914062 114.730469 136.355469 114.175781 136.710938 113.558594 C 137.320312 112.507812 137.636719 111.359375 137.671875 110.226562 L 134.566406 110.230469 C 134.535156 111.511719 134.222656 112.808594 133.601562 114.015625 C 134.257812 114.332031 134.855469 114.730469 135.394531 115.214844 Z M 133.941406 110.230469 C 133.90625 111.476562 133.597656 112.652344 133.023438 113.757812 C 132.265625 113.488281 131.492188 113.335938 130.722656 113.308594 L 130.726562 110.234375 Z M 126.910156 110.21875 C 126.957031 111.46875 127.265625 112.652344 127.835938 113.765625 C 128.570312 113.5 129.339844 113.34375 130.125 113.320312 L 130.132812 110.234375 Z M 123.191406 110.226562 C 123.273438 112.097656 124.078125 113.914062 125.484375 115.21875 C 126.023438 114.71875 126.625 114.320312 127.261719 114.011719 C 126.660156 112.828125 126.324219 111.5625 126.28125 110.226562 Z M 123.191406 110.226562 " fill-opacity="1" fill-rule="evenodd"/><g fill="#000000" fill-opacity="1"><g transform="translate(151.476894, 103.746284)"><g><path d="M 2.453125 -1.203125 L 5.515625 -1.203125 L 5.515625 0 L 0.96875 0 L 0.96875 -9.03125 L 2.453125 -9.03125 Z M 2.453125 -1.203125 "/></g></g></g><g fill="#000000" fill-opacity="1"><g transform="translate(157.247131, 103.746284)"><g><path d="M 7.546875 -3.75 C 7.546875 -3.488281 7.523438 -3.25 7.484375 -3.03125 L 2.015625 -3.03125 C 2.054688 -2.457031 2.265625 -1.992188 2.640625 -1.640625 C 3.023438 -1.296875 3.5 -1.125 4.0625 -1.125 C 4.851562 -1.125 5.414062 -1.457031 5.75 -2.125 L 7.34375 -2.125 C 7.125 -1.46875 6.726562 -0.929688 6.15625 -0.515625 C 5.59375 -0.0976562 4.894531 0.109375 4.0625 0.109375 C 3.375 0.109375 2.757812 -0.0390625 2.21875 -0.34375 C 1.675781 -0.65625 1.25 -1.085938 0.9375 -1.640625 C 0.632812 -2.203125 0.484375 -2.851562 0.484375 -3.59375 C 0.484375 -4.320312 0.628906 -4.96875 0.921875 -5.53125 C 1.222656 -6.09375 1.644531 -6.523438 2.1875 -6.828125 C 2.726562 -7.128906 3.351562 -7.28125 4.0625 -7.28125 C 4.726562 -7.28125 5.328125 -7.128906 5.859375 -6.828125 C 6.390625 -6.535156 6.800781 -6.125 7.09375 -5.59375 C 7.394531 -5.0625 7.546875 -4.445312 7.546875 -3.75 Z M 6 -4.21875 C 5.988281 -4.769531 5.789062 -5.207031 5.40625 -5.53125 C 5.03125 -5.863281 4.554688 -6.03125 3.984375 -6.03125 C 3.472656 -6.03125 3.035156 -5.867188 2.671875 -5.546875 C 2.304688 -5.222656 2.09375 -4.78125 2.03125 -4.21875 Z M 6 -4.21875 "/></g></g></g><g fill="#000000" fill-opacity="1"><g transform="translate(165.265674, 103.746284)"><g><path d="M 0.484375 -3.609375 C 0.484375 -4.328125 0.628906 -4.960938 0.921875 -5.515625 C 1.222656 -6.078125 1.628906 -6.507812 2.140625 -6.8125 C 2.660156 -7.125 3.234375 -7.28125 3.859375 -7.28125 C 4.421875 -7.28125 4.910156 -7.164062 5.328125 -6.9375 C 5.753906 -6.71875 6.09375 -6.445312 6.34375 -6.125 L 6.34375 -7.15625 L 7.84375 -7.15625 L 7.84375 0 L 6.34375 0 L 6.34375 -1.0625 C 6.09375 -0.726562 5.75 -0.445312 5.3125 -0.21875 C 4.882812 0 4.390625 0.109375 3.828125 0.109375 C 3.210938 0.109375 2.648438 -0.046875 2.140625 -0.359375 C 1.628906 -0.671875 1.222656 -1.109375 0.921875 -1.671875 C 0.628906 -2.242188 0.484375 -2.890625 0.484375 -3.609375 Z M 6.34375 -3.59375 C 6.34375 -4.082031 6.238281 -4.507812 6.03125 -4.875 C 5.832031 -5.238281 5.566406 -5.515625 5.234375 -5.703125 C 4.910156 -5.898438 4.554688 -6 4.171875 -6 C 3.785156 -6 3.425781 -5.90625 3.09375 -5.71875 C 2.769531 -5.53125 2.503906 -5.253906 2.296875 -4.890625 C 2.097656 -4.535156 2 -4.109375 2 -3.609375 C 2 -3.117188 2.097656 -2.6875 2.296875 -2.3125 C 2.503906 -1.9375 2.773438 -1.648438 3.109375 -1.453125 C 3.441406 -1.265625 3.796875 -1.171875 4.171875 -1.171875 C 4.554688 -1.171875 4.910156 -1.265625 5.234375 -1.453125 C 5.566406 -1.640625 5.832031 -1.914062 6.03125 -2.28125 C 6.238281 -2.65625 6.34375 -3.09375 6.34375 -3.59375 Z M 6.34375 -3.59375 "/></g></g></g><g fill="#000000" fill-opacity="1"><g transform="translate(174.076971, 103.746284)"><g><path d="M 0.484375 -3.609375 C 0.484375 -4.328125 0.628906 -4.960938 0.921875 -5.515625 C 1.222656 -6.078125 1.628906 -6.507812 2.140625 -6.8125 C 2.660156 -7.125 3.238281 -7.28125 3.875 -7.28125 C 4.34375 -7.28125 4.800781 -7.175781 5.25 -6.96875 C 5.707031 -6.769531 6.070312 -6.5 6.34375 -6.15625 L 6.34375 -9.625 L 7.84375 -9.625 L 7.84375 0 L 6.34375 0 L 6.34375 -1.078125 C 6.101562 -0.734375 5.765625 -0.445312 5.328125 -0.21875 C 4.898438 0 4.410156 0.109375 3.859375 0.109375 C 3.234375 0.109375 2.660156 -0.046875 2.140625 -0.359375 C 1.628906 -0.671875 1.222656 -1.109375 0.921875 -1.671875 C 0.628906 -2.242188 0.484375 -2.890625 0.484375 -3.609375 Z M 6.34375 -3.59375 C 6.34375 -4.082031 6.238281 -4.507812 6.03125 -4.875 C 5.832031 -5.238281 5.566406 -5.515625 5.234375 -5.703125 C 4.910156 -5.898438 4.554688 -6 4.171875 -6 C 3.785156 -6 3.425781 -5.90625 3.09375 -5.71875 C 2.769531 -5.53125 2.503906 -5.253906 2.296875 -4.890625 C 2.097656 -4.535156 2 -4.109375 2 -3.609375 C 2 -3.117188 2.097656 -2.6875 2.296875 -2.3125 C 2.503906 -1.9375 2.773438 -1.648438 3.109375 -1.453125 C 3.441406 -1.265625 3.796875 -1.171875 4.171875 -1.171875 C 4.554688 -1.171875 4.910156 -1.265625 5.234375 -1.453125 C 5.566406 -1.640625 5.832031 -1.914062 6.03125 -2.28125 C 6.238281 -2.65625 6.34375 -3.09375 6.34375 -3.59375 Z M 6.34375 -3.59375 "/></g></g></g><g fill="#000000" fill-opacity="1"><g transform="translate(182.888269, 103.746284)"><g><path d="M 7.546875 -3.75 C 7.546875 -3.488281 7.523438 -3.25 7.484375 -3.03125 L 2.015625 -3.03125 C 2.054688 -2.457031 2.265625 -1.992188 2.640625 -1.640625 C 3.023438 -1.296875 3.5 -1.125 4.0625 -1.125 C 4.851562 -1.125 5.414062 -1.457031 5.75 -2.125 L 7.34375 -2.125 C 7.125 -1.46875 6.726562 -0.929688 6.15625 -0.515625 C 5.59375 -0.0976562 4.894531 0.109375 4.0625 0.109375 C 3.375 0.109375 2.757812 -0.0390625 2.21875 -0.34375 C 1.675781 -0.65625 1.25 -1.085938 0.9375 -1.640625 C 0.632812 -2.203125 0.484375 -2.851562 0.484375 -3.59375 C 0.484375 -4.320312 0.628906 -4.96875 0.921875 -5.53125 C 1.222656 -6.09375 1.644531 -6.523438 2.1875 -6.828125 C 2.726562 -7.128906 3.351562 -7.28125 4.0625 -7.28125 C 4.726562 -7.28125 5.328125 -7.128906 5.859375 -6.828125 C 6.390625 -6.535156 6.800781 -6.125 7.09375 -5.59375 C 7.394531 -5.0625 7.546875 -4.445312 7.546875 -3.75 Z M 6 -4.21875 C 5.988281 -4.769531 5.789062 -5.207031 5.40625 -5.53125 C 5.03125 -5.863281 4.554688 -6.03125 3.984375 -6.03125 C 3.472656 -6.03125 3.035156 -5.867188 2.671875 -5.546875 C 2.304688 -5.222656 2.09375 -4.78125 2.03125 -4.21875 Z M 6 -4.21875 "/></g></g></g><g fill="#000000" fill-opacity="1"><g transform="translate(190.906812, 103.746284)"><g><path d="M 2.453125 -6.125 C 2.671875 -6.488281 2.957031 -6.769531 3.3125 -6.96875 C 3.675781 -7.175781 4.109375 -7.28125 4.609375 -7.28125 L 4.609375 -5.75 L 4.21875 -5.75 C 3.644531 -5.75 3.207031 -5.597656 2.90625 -5.296875 C 2.601562 -5.003906 2.453125 -4.492188 2.453125 -3.765625 L 2.453125 0 L 0.96875 0 L 0.96875 -7.15625 L 2.453125 -7.15625 Z M 2.453125 -6.125 "/></g></g></g><g fill="#000000" fill-opacity="1"><g transform="translate(195.897282, 103.746284)"><g><path d="M 3.578125 0.109375 C 3.015625 0.109375 2.507812 0.0078125 2.0625 -0.1875 C 1.613281 -0.394531 1.257812 -0.671875 1 -1.015625 C 0.738281 -1.367188 0.597656 -1.765625 0.578125 -2.203125 L 2.125 -2.203125 C 2.144531 -1.890625 2.285156 -1.628906 2.546875 -1.421875 C 2.816406 -1.222656 3.148438 -1.125 3.546875 -1.125 C 3.960938 -1.125 4.285156 -1.203125 4.515625 -1.359375 C 4.742188 -1.523438 4.859375 -1.734375 4.859375 -1.984375 C 4.859375 -2.253906 4.726562 -2.453125 4.46875 -2.578125 C 4.21875 -2.710938 3.816406 -2.859375 3.265625 -3.015625 C 2.722656 -3.160156 2.28125 -3.300781 1.9375 -3.4375 C 1.601562 -3.582031 1.3125 -3.796875 1.0625 -4.078125 C 0.820312 -4.367188 0.703125 -4.75 0.703125 -5.21875 C 0.703125 -5.59375 0.8125 -5.9375 1.03125 -6.25 C 1.257812 -6.570312 1.582031 -6.820312 2 -7 C 2.425781 -7.1875 2.910156 -7.28125 3.453125 -7.28125 C 4.273438 -7.28125 4.929688 -7.070312 5.421875 -6.65625 C 5.921875 -6.25 6.191406 -5.691406 6.234375 -4.984375 L 4.75 -4.984375 C 4.71875 -5.296875 4.582031 -5.546875 4.34375 -5.734375 C 4.113281 -5.929688 3.800781 -6.03125 3.40625 -6.03125 C 3.019531 -6.03125 2.722656 -5.957031 2.515625 -5.8125 C 2.304688 -5.664062 2.203125 -5.46875 2.203125 -5.21875 C 2.203125 -5.03125 2.269531 -4.867188 2.40625 -4.734375 C 2.539062 -4.609375 2.707031 -4.507812 2.90625 -4.4375 C 3.113281 -4.363281 3.410156 -4.269531 3.796875 -4.15625 C 4.316406 -4.019531 4.742188 -3.878906 5.078125 -3.734375 C 5.410156 -3.585938 5.695312 -3.375 5.9375 -3.09375 C 6.1875 -2.820312 6.3125 -2.457031 6.3125 -2 C 6.3125 -1.59375 6.195312 -1.226562 5.96875 -0.90625 C 5.75 -0.582031 5.429688 -0.332031 5.015625 -0.15625 C 4.609375 0.0195312 4.128906 0.109375 3.578125 0.109375 Z M 3.578125 0.109375 "/></g></g></g><g fill="#000000" fill-opacity="1"><g transform="translate(202.837151, 103.746284)"><g><path d="M 4.6875 -7.28125 C 5.226562 -7.28125 5.710938 -7.160156 6.140625 -6.921875 C 6.566406 -6.691406 6.90625 -6.347656 7.15625 -5.890625 C 7.40625 -5.429688 7.53125 -4.875 7.53125 -4.21875 L 7.53125 0 L 6.0625 0 L 6.0625 -4 C 6.0625 -4.644531 5.898438 -5.140625 5.578125 -5.484375 C 5.253906 -5.828125 4.816406 -6 4.265625 -6 C 3.710938 -6 3.269531 -5.828125 2.9375 -5.484375 C 2.613281 -5.140625 2.453125 -4.644531 2.453125 -4 L 2.453125 0 L 0.96875 0 L 0.96875 -9.625 L 2.453125 -9.625 L 2.453125 -6.328125 C 2.703125 -6.628906 3.019531 -6.863281 3.40625 -7.03125 C 3.789062 -7.195312 4.21875 -7.28125 4.6875 -7.28125 Z M 4.6875 -7.28125 "/></g></g></g><g fill="#000000" fill-opacity="1"><g transform="translate(211.27156, 103.746284)"><g><path d="M 1.734375 -8.109375 C 1.460938 -8.109375 1.234375 -8.195312 1.046875 -8.375 C 0.867188 -8.5625 0.78125 -8.789062 0.78125 -9.0625 C 0.78125 -9.332031 0.867188 -9.554688 1.046875 -9.734375 C 1.234375 -9.921875 1.460938 -10.015625 1.734375 -10.015625 C 1.992188 -10.015625 2.210938 -9.921875 2.390625 -9.734375 C 2.578125 -9.554688 2.671875 -9.332031 2.671875 -9.0625 C 2.671875 -8.789062 2.578125 -8.5625 2.390625 -8.375 C 2.210938 -8.195312 1.992188 -8.109375 1.734375 -8.109375 Z M 2.453125 -7.15625 L 2.453125 0 L 0.96875 0 L 0.96875 -7.15625 Z M 2.453125 -7.15625 "/></g></g></g><g fill="#000000" fill-opacity="1"><g transform="translate(214.70251, 103.746284)"><g><path d="M 2.453125 -6.109375 C 2.703125 -6.441406 3.046875 -6.71875 3.484375 -6.9375 C 3.921875 -7.164062 4.410156 -7.28125 4.953125 -7.28125 C 5.578125 -7.28125 6.144531 -7.125 6.65625 -6.8125 C 7.175781 -6.507812 7.582031 -6.078125 7.875 -5.515625 C 8.164062 -4.960938 8.3125 -4.328125 8.3125 -3.609375 C 8.3125 -2.890625 8.164062 -2.242188 7.875 -1.671875 C 7.582031 -1.109375 7.175781 -0.671875 6.65625 -0.359375 C 6.144531 -0.046875 5.578125 0.109375 4.953125 0.109375 C 4.410156 0.109375 3.925781 0 3.5 -0.21875 C 3.070312 -0.4375 2.722656 -0.710938 2.453125 -1.046875 L 2.453125 3.40625 L 0.96875 3.40625 L 0.96875 -7.15625 L 2.453125 -7.15625 Z M 6.8125 -3.609375 C 6.8125 -4.109375 6.707031 -4.535156 6.5 -4.890625 C 6.300781 -5.253906 6.035156 -5.53125 5.703125 -5.71875 C 5.367188 -5.90625 5.007812 -6 4.625 -6 C 4.25 -6 3.894531 -5.898438 3.5625 -5.703125 C 3.226562 -5.515625 2.957031 -5.238281 2.75 -4.875 C 2.550781 -4.507812 2.453125 -4.082031 2.453125 -3.59375 C 2.453125 -3.09375 2.550781 -2.65625 2.75 -2.28125 C 2.957031 -1.914062 3.226562 -1.640625 3.5625 -1.453125 C 3.894531 -1.265625 4.25 -1.171875 4.625 -1.171875 C 5.007812 -1.171875 5.367188 -1.265625 5.703125 -1.453125 C 6.035156 -1.648438 6.300781 -1.9375 6.5 -2.3125 C 6.707031 -2.6875 6.8125 -3.117188 6.8125 -3.609375 Z M 6.8125 -3.609375 "/></g></g></g><g fill="#000000" fill-opacity="1"><g transform="translate(161.906581, 121.746282)"><g><path d="M 2.703125 -5.953125 L 2.703125 -1.984375 C 2.703125 -1.722656 2.765625 -1.53125 2.890625 -1.40625 C 3.015625 -1.289062 3.226562 -1.234375 3.53125 -1.234375 L 4.453125 -1.234375 L 4.453125 0 L 3.28125 0 C 2.613281 0 2.097656 -0.15625 1.734375 -0.46875 C 1.378906 -0.78125 1.203125 -1.285156 1.203125 -1.984375 L 1.203125 -5.953125 L 0.359375 -5.953125 L 0.359375 -7.15625 L 1.203125 -7.15625 L 1.203125 -8.9375 L 2.703125 -8.9375 L 2.703125 -7.15625 L 4.453125 -7.15625 L 4.453125 -5.953125 Z M 2.703125 -5.953125 "/></g></g></g><g fill="#000000" fill-opacity="1"><g transform="translate(166.741103, 121.746282)"><g><path d="M 2.453125 -6.125 C 2.671875 -6.488281 2.957031 -6.769531 3.3125 -6.96875 C 3.675781 -7.175781 4.109375 -7.28125 4.609375 -7.28125 L 4.609375 -5.75 L 4.21875 -5.75 C 3.644531 -5.75 3.207031 -5.597656 2.90625 -5.296875 C 2.601562 -5.003906 2.453125 -4.492188 2.453125 -3.765625 L 2.453125 0 L 0.96875 0 L 0.96875 -7.15625 L 2.453125 -7.15625 Z M 2.453125 -6.125 "/></g></g></g><g fill="#000000" fill-opacity="1"><g transform="translate(171.731574, 121.746282)"><g><path d="M 0.484375 -3.609375 C 0.484375 -4.328125 0.628906 -4.960938 0.921875 -5.515625 C 1.222656 -6.078125 1.628906 -6.507812 2.140625 -6.8125 C 2.660156 -7.125 3.234375 -7.28125 3.859375 -7.28125 C 4.421875 -7.28125 4.910156 -7.164062 5.328125 -6.9375 C 5.753906 -6.71875 6.09375 -6.445312 6.34375 -6.125 L 6.34375 -7.15625 L 7.84375 -7.15625 L 7.84375 0 L 6.34375 0 L 6.34375 -1.0625 C 6.09375 -0.726562 5.75 -0.445312 5.3125 -0.21875 C 4.882812 0 4.390625 0.109375 3.828125 0.109375 C 3.210938 0.109375 2.648438 -0.046875 2.140625 -0.359375 C 1.628906 -0.671875 1.222656 -1.109375 0.921875 -1.671875 C 0.628906 -2.242188 0.484375 -2.890625 0.484375 -3.609375 Z M 6.34375 -3.59375 C 6.34375 -4.082031 6.238281 -4.507812 6.03125 -4.875 C 5.832031 -5.238281 5.566406 -5.515625 5.234375 -5.703125 C 4.910156 -5.898438 4.554688 -6 4.171875 -6 C 3.785156 -6 3.425781 -5.90625 3.09375 -5.71875 C 2.769531 -5.53125 2.503906 -5.253906 2.296875 -4.890625 C 2.097656 -4.535156 2 -4.109375 2 -3.609375 C 2 -3.117188 2.097656 -2.6875 2.296875 -2.3125 C 2.503906 -1.9375 2.773438 -1.648438 3.109375 -1.453125 C 3.441406 -1.265625 3.796875 -1.171875 4.171875 -1.171875 C 4.554688 -1.171875 4.910156 -1.265625 5.234375 -1.453125 C 5.566406 -1.640625 5.832031 -1.914062 6.03125 -2.28125 C 6.238281 -2.65625 6.34375 -3.09375 6.34375 -3.59375 Z M 6.34375 -3.59375 "/></g></g></g><g fill="#000000" fill-opacity="1"><g transform="translate(180.542871, 121.746282)"><g><path d="M 1.734375 -8.109375 C 1.460938 -8.109375 1.234375 -8.195312 1.046875 -8.375 C 0.867188 -8.5625 0.78125 -8.789062 0.78125 -9.0625 C 0.78125 -9.332031 0.867188 -9.554688 1.046875 -9.734375 C 1.234375 -9.921875 1.460938 -10.015625 1.734375 -10.015625 C 1.992188 -10.015625 2.210938 -9.921875 2.390625 -9.734375 C 2.578125 -9.554688 2.671875 -9.332031 2.671875 -9.0625 C 2.671875 -8.789062 2.578125 -8.5625 2.390625 -8.375 C 2.210938 -8.195312 1.992188 -8.109375 1.734375 -8.109375 Z M 2.453125 -7.15625 L 2.453125 0 L 0.96875 0 L 0.96875 -7.15625 Z M 2.453125 -7.15625 "/></g></g></g><g fill="#000000" fill-opacity="1"><g transform="translate(183.973821, 121.746282)"><g><path d="M 4.59375 -7.28125 C 5.15625 -7.28125 5.65625 -7.160156 6.09375 -6.921875 C 6.539062 -6.691406 6.890625 -6.347656 7.140625 -5.890625 C 7.398438 -5.429688 7.53125 -4.875 7.53125 -4.21875 L 7.53125 0 L 6.0625 0 L 6.0625 -4 C 6.0625 -4.644531 5.898438 -5.140625 5.578125 -5.484375 C 5.253906 -5.828125 4.816406 -6 4.265625 -6 C 3.710938 -6 3.269531 -5.828125 2.9375 -5.484375 C 2.613281 -5.140625 2.453125 -4.644531 2.453125 -4 L 2.453125 0 L 0.96875 0 L 0.96875 -7.15625 L 2.453125 -7.15625 L 2.453125 -6.34375 C 2.703125 -6.632812 3.015625 -6.863281 3.390625 -7.03125 C 3.765625 -7.195312 4.164062 -7.28125 4.59375 -7.28125 Z M 4.59375 -7.28125 "/></g></g></g><g fill="#000000" fill-opacity="1"><g transform="translate(192.408231, 121.746282)"><g><path d="M 1.734375 -8.109375 C 1.460938 -8.109375 1.234375 -8.195312 1.046875 -8.375 C 0.867188 -8.5625 0.78125 -8.789062 0.78125 -9.0625 C 0.78125 -9.332031 0.867188 -9.554688 1.046875 -9.734375 C 1.234375 -9.921875 1.460938 -10.015625 1.734375 -10.015625 C 1.992188 -10.015625 2.210938 -9.921875 2.390625 -9.734375 C 2.578125 -9.554688 2.671875 -9.332031 2.671875 -9.0625 C 2.671875 -8.789062 2.578125 -8.5625 2.390625 -8.375 C 2.210938 -8.195312 1.992188 -8.109375 1.734375 -8.109375 Z M 2.453125 -7.15625 L 2.453125 0 L 0.96875 0 L 0.96875 -7.15625 Z M 2.453125 -7.15625 "/></g></g></g><g fill="#000000" fill-opacity="1"><g transform="translate(195.839181, 121.746282)"><g><path d="M 4.59375 -7.28125 C 5.15625 -7.28125 5.65625 -7.160156 6.09375 -6.921875 C 6.539062 -6.691406 6.890625 -6.347656 7.140625 -5.890625 C 7.398438 -5.429688 7.53125 -4.875 7.53125 -4.21875 L 7.53125 0 L 6.0625 0 L 6.0625 -4 C 6.0625 -4.644531 5.898438 -5.140625 5.578125 -5.484375 C 5.253906 -5.828125 4.816406 -6 4.265625 -6 C 3.710938 -6 3.269531 -5.828125 2.9375 -5.484375 C 2.613281 -5.140625 2.453125 -4.644531 2.453125 -4 L 2.453125 0 L 0.96875 0 L 0.96875 -7.15625 L 2.453125 -7.15625 L 2.453125 -6.34375 C 2.703125 -6.632812 3.015625 -6.863281 3.390625 -7.03125 C 3.765625 -7.195312 4.164062 -7.28125 4.59375 -7.28125 Z M 4.59375 -7.28125 "/></g></g></g><g fill="#000000" fill-opacity="1"><g transform="translate(204.27359, 121.746282)"><g><path d="M 3.859375 -7.28125 C 4.410156 -7.28125 4.898438 -7.164062 5.328125 -6.9375 C 5.765625 -6.71875 6.101562 -6.445312 6.34375 -6.125 L 6.34375 -7.15625 L 7.84375 -7.15625 L 7.84375 0.109375 C 7.84375 0.773438 7.703125 1.363281 7.421875 1.875 C 7.140625 2.394531 6.738281 2.800781 6.21875 3.09375 C 5.695312 3.382812 5.070312 3.53125 4.34375 3.53125 C 3.375 3.53125 2.566406 3.300781 1.921875 2.84375 C 1.285156 2.394531 0.921875 1.78125 0.828125 1 L 2.296875 1 C 2.410156 1.375 2.648438 1.675781 3.015625 1.90625 C 3.390625 2.132812 3.832031 2.25 4.34375 2.25 C 4.9375 2.25 5.414062 2.066406 5.78125 1.703125 C 6.15625 1.335938 6.34375 0.804688 6.34375 0.109375 L 6.34375 -1.078125 C 6.09375 -0.742188 5.753906 -0.460938 5.328125 -0.234375 C 4.898438 -0.00390625 4.410156 0.109375 3.859375 0.109375 C 3.234375 0.109375 2.660156 -0.046875 2.140625 -0.359375 C 1.628906 -0.671875 1.222656 -1.109375 0.921875 -1.671875 C 0.628906 -2.242188 0.484375 -2.890625 0.484375 -3.609375 C 0.484375 -4.328125 0.628906 -4.960938 0.921875 -5.515625 C 1.222656 -6.078125 1.628906 -6.507812 2.140625 -6.8125 C 2.660156 -7.125 3.234375 -7.28125 3.859375 -7.28125 Z M 6.34375 -3.59375 C 6.34375 -4.082031 6.238281 -4.507812 6.03125 -4.875 C 5.832031 -5.238281 5.566406 -5.515625 5.234375 -5.703125 C 4.910156 -5.898438 4.554688 -6 4.171875 -6 C 3.785156 -6 3.425781 -5.90625 3.09375 -5.71875 C 2.769531 -5.53125 2.503906 -5.253906 2.296875 -4.890625 C 2.097656 -4.535156 2 -4.109375 2 -3.609375 C 2 -3.117188 2.097656 -2.6875 2.296875 -2.3125 C 2.503906 -1.9375 2.773438 -1.648438 3.109375 -1.453125 C 3.441406 -1.265625 3.796875 -1.171875 4.171875 -1.171875 C 4.554688 -1.171875 4.910156 -1.265625 5.234375 -1.453125 C 5.566406 -1.640625 5.832031 -1.914062 6.03125 -2.28125 C 6.238281 -2.65625 6.34375 -3.09375 6.34375 -3.59375 Z M 6.34375 -3.59375 "/></g></g></g></svg>