<svg xmlns="http://www.w3.org/2000/svg" xmlns:xlink="http://www.w3.org/1999/xlink" width="500" zoomAndPan="magnify" viewBox="0 0 375 374.999991" height="500" preserveAspectRatio="xMidYMid meet" version="1.0"><defs><g/></defs><path fill="#33348e" d="M 41.054688 122.757812 C 49.023438 122.757812 55.523438 129.253906 55.523438 137.222656 C 55.523438 145.191406 49.023438 151.691406 41.054688 151.691406 C 33.085938 151.691406 26.589844 145.191406 26.589844 137.222656 C 26.589844 129.253906 33.085938 122.757812 41.054688 122.757812 Z M 41.054688 122.757812 " fill-opacity="1" fill-rule="evenodd"/><path fill="#cc2229" d="M 33.933594 110.652344 L 35.703125 107.867188 L 41.054688 110.933594 L 46.703125 107.949219 L 48.179688 110.65625 L 43.210938 113.34375 L 43.210938 122.523438 L 38.902344 122.523438 L 38.902344 113.34375 Z M 33.933594 110.652344 " fill-opacity="1" fill-rule="evenodd"/><path fill="#33348e" d="M 14.5 130.125 L 12.972656 127.199219 L 18.304688 124.101562 L 18.542969 117.71875 L 21.628906 117.792969 L 21.472656 123.4375 L 29.417969 128.027344 L 27.265625 131.761719 L 19.316406 127.171875 Z M 14.5 130.125 " fill-opacity="1" fill-rule="evenodd"/><path fill="#cc2229" d="M 21.605469 156.683594 L 18.304688 156.542969 L 18.289062 150.375 L 12.878906 146.980469 L 14.488281 144.347656 L 19.296875 147.304688 L 27.246094 142.714844 L 29.402344 146.445312 L 21.453125 151.035156 Z M 67.625 144.351562 L 69.152344 147.28125 L 63.820312 150.378906 L 63.582031 156.761719 L 60.5 156.6875 L 60.65625 151.042969 L 52.707031 146.453125 L 54.859375 142.71875 L 62.808594 147.308594 Z M 67.625 144.351562 " fill-opacity="1" fill-rule="evenodd"/><path fill="#33348e" d="M 60.539062 117.789062 L 63.835938 117.929688 L 63.855469 124.097656 L 69.265625 127.496094 L 67.65625 130.128906 L 62.84375 127.171875 L 54.898438 131.757812 L 52.742188 128.027344 L 60.691406 123.4375 Z M 33.933594 163.792969 L 35.703125 166.578125 L 41.054688 163.511719 L 46.703125 166.496094 L 48.179688 163.785156 L 43.210938 161.101562 L 43.210938 151.921875 L 38.902344 151.921875 L 38.902344 161.101562 Z M 33.933594 163.792969 " fill-opacity="1" fill-rule="evenodd"/><path fill="#33348e" d="M 66.957031 120.050781 C 68.253906 120.050781 69.3125 121.03125 69.3125 122.238281 C 69.3125 123.441406 68.253906 124.421875 66.957031 124.421875 C 65.65625 124.421875 64.597656 123.441406 64.597656 122.238281 C 64.597656 121.03125 65.65625 120.050781 66.957031 120.050781 Z M 66.957031 120.050781 " fill-opacity="1" fill-rule="evenodd"/><path fill="#fff22d" d="M 55.6875 135.070312 L 58.027344 135.070312 L 58.027344 133.941406 L 64.871094 135.070312 L 67.640625 130.132812 L 70.398438 131.6875 L 67.558594 137.230469 L 70.351562 142.898438 L 67.628906 144.351562 L 64.871094 139.378906 L 58.027344 140.503906 L 58.027344 139.378906 L 55.6875 139.378906 Z M 55.6875 135.070312 " fill-opacity="1" fill-rule="evenodd"/><path fill="#6fa291" d="M 26.421875 135.070312 L 24.082031 135.070312 L 24.082031 133.941406 L 17.238281 135.070312 L 14.46875 130.132812 L 11.714844 131.6875 L 14.554688 137.230469 L 11.757812 142.898438 L 14.484375 144.351562 L 17.238281 139.378906 L 24.082031 140.503906 L 24.082031 139.378906 L 26.421875 139.378906 Z M 26.421875 135.070312 " fill-opacity="1" fill-rule="evenodd"/><path fill="#fff22d" d="M 31.890625 148.800781 L 30.71875 150.828125 L 29.742188 150.261719 L 27.296875 156.753906 L 21.640625 156.683594 L 21.605469 159.847656 L 27.824219 160.160156 L 31.339844 165.414062 L 33.957031 163.78125 L 31.03125 158.910156 L 35.425781 153.546875 L 34.453125 152.984375 L 35.621094 150.953125 Z M 31.890625 148.800781 " fill-opacity="1" fill-rule="evenodd"/><path fill="#6fa291" d="M 46.488281 150.964844 L 47.65625 152.992188 L 46.679688 153.554688 L 51.078125 158.917969 L 48.1875 163.785156 L 50.914062 165.394531 L 54.292969 160.164062 L 60.601562 159.75 L 60.496094 156.664062 L 54.8125 156.765625 L 52.363281 150.273438 L 51.390625 150.835938 L 50.21875 148.808594 Z M 50.269531 125.679688 L 51.4375 123.648438 L 52.417969 124.214844 L 54.859375 117.722656 L 60.519531 117.792969 L 60.554688 114.628906 L 54.332031 114.316406 L 50.820312 109.0625 L 48.199219 110.695312 L 51.128906 115.570312 L 46.734375 120.933594 L 47.707031 121.496094 L 46.539062 123.523438 Z M 50.269531 125.679688 " fill-opacity="1" fill-rule="evenodd"/><path fill="#fff22d" d="M 35.617188 123.484375 L 34.449219 121.457031 L 35.425781 120.890625 L 31.027344 115.53125 L 33.917969 110.664062 L 31.191406 109.054688 L 27.8125 114.285156 L 21.507812 114.699219 L 21.609375 117.785156 L 27.292969 117.683594 L 29.742188 124.175781 L 30.714844 123.613281 L 31.886719 125.640625 Z M 35.617188 123.484375 " fill-opacity="1" fill-rule="evenodd"/><path fill="#6fa291" d="M 57.148438 109.359375 C 58.210938 109.972656 58.578125 111.339844 57.964844 112.402344 C 57.351562 113.46875 55.984375 113.832031 54.921875 113.21875 C 53.859375 112.605469 53.492188 111.238281 54.105469 110.175781 C 54.71875 109.113281 56.085938 108.746094 57.148438 109.359375 Z M 57.148438 109.359375 " fill-opacity="1" fill-rule="evenodd"/><path fill="#cc2229" d="M 41.058594 105.035156 C 42.285156 105.035156 43.289062 106.035156 43.289062 107.261719 C 43.289062 108.488281 42.285156 109.488281 41.058594 109.488281 C 39.832031 109.488281 38.832031 108.488281 38.832031 107.261719 C 38.832031 106.035156 39.832031 105.035156 41.058594 105.035156 Z M 41.058594 105.035156 " fill-opacity="1" fill-rule="evenodd"/><path fill="#fff22d" d="M 24.964844 109.359375 C 26.027344 108.746094 27.394531 109.113281 28.007812 110.175781 C 28.621094 111.238281 28.253906 112.605469 27.191406 113.21875 C 26.128906 113.832031 24.761719 113.464844 24.148438 112.402344 C 23.535156 111.339844 23.902344 109.972656 24.964844 109.359375 Z M 24.964844 109.359375 " fill-opacity="1" fill-rule="evenodd"/><path fill="#33348e" d="M 13.1875 121.148438 C 13.800781 120.085938 15.167969 119.71875 16.230469 120.335938 C 17.292969 120.949219 17.660156 122.316406 17.046875 123.378906 C 16.433594 124.441406 15.066406 124.808594 14 124.195312 C 12.9375 123.582031 12.574219 122.210938 13.1875 121.148438 Z M 13.1875 121.148438 " fill-opacity="1" fill-rule="evenodd"/><path fill="#6fa291" d="M 8.859375 137.226562 C 8.859375 136 9.859375 135 11.085938 135 C 12.3125 135 13.316406 136 13.316406 137.226562 C 13.316406 138.453125 12.3125 139.453125 11.085938 139.453125 C 9.859375 139.453125 8.859375 138.453125 8.859375 137.226562 Z M 8.859375 137.226562 " fill-opacity="1" fill-rule="evenodd"/><path fill="#cc2229" d="M 13.199219 153.316406 C 12.585938 152.253906 12.953125 150.886719 14.015625 150.273438 C 15.078125 149.660156 16.445312 150.027344 17.058594 151.089844 C 17.671875 152.152344 17.304688 153.519531 16.242188 154.132812 C 15.179688 154.746094 13.8125 154.378906 13.199219 153.316406 Z M 13.199219 153.316406 " fill-opacity="1" fill-rule="evenodd"/><path fill="#fff22d" d="M 24.972656 165.097656 C 23.910156 164.484375 23.542969 163.117188 24.15625 162.054688 C 24.773438 160.992188 26.140625 160.625 27.203125 161.238281 C 28.265625 161.851562 28.632812 163.222656 28.019531 164.285156 C 27.402344 165.347656 26.035156 165.710938 24.972656 165.097656 Z M 24.972656 165.097656 " fill-opacity="1" fill-rule="evenodd"/><path fill="#33348e" d="M 41.054688 169.410156 C 39.828125 169.410156 38.828125 168.40625 38.828125 167.179688 C 38.828125 165.953125 39.828125 164.953125 41.054688 164.953125 C 42.28125 164.953125 43.285156 165.953125 43.285156 167.179688 C 43.285156 168.40625 42.28125 169.410156 41.054688 169.410156 Z M 41.054688 169.410156 " fill-opacity="1" fill-rule="evenodd"/><path fill="#6fa291" d="M 57.136719 165.085938 C 56.074219 165.699219 54.707031 165.332031 54.09375 164.269531 C 53.480469 163.207031 53.847656 161.839844 54.910156 161.226562 C 55.972656 160.613281 57.339844 160.980469 57.953125 162.042969 C 58.566406 163.105469 58.199219 164.472656 57.136719 165.085938 Z M 57.136719 165.085938 " fill-opacity="1" fill-rule="evenodd"/><path fill="#cc2229" d="M 68.917969 153.3125 C 68.300781 154.375 66.933594 154.742188 65.871094 154.128906 C 64.808594 153.511719 64.445312 152.148438 65.058594 151.082031 C 65.671875 150.019531 67.039062 149.652344 68.101562 150.269531 C 69.164062 150.882812 69.53125 152.25 68.917969 153.3125 Z M 68.917969 153.3125 " fill-opacity="1" fill-rule="evenodd"/><path fill="#fff22d" d="M 73.242188 137.230469 C 73.242188 138.457031 72.242188 139.457031 71.015625 139.457031 C 70.71875 139.457031 70.433594 139.402344 70.164062 139.289062 C 69.890625 139.175781 69.648438 139.015625 69.441406 138.804688 C 69.230469 138.597656 69.070312 138.355469 68.957031 138.082031 C 68.84375 137.808594 68.785156 137.527344 68.785156 137.230469 C 68.785156 136.003906 69.789062 135.003906 71.015625 135.003906 C 72.242188 135.003906 73.242188 136.003906 73.242188 137.230469 Z M 73.242188 137.230469 " fill-opacity="1" fill-rule="evenodd"/><path fill="#00acec" d="M 33.507812 124.152344 C 40.710938 119.992188 49.980469 122.476562 54.136719 129.679688 C 58.296875 136.882812 55.816406 146.148438 48.609375 150.308594 C 41.40625 154.46875 32.140625 151.984375 27.980469 144.78125 C 23.820312 137.578125 26.304688 128.308594 33.507812 124.152344 Z M 39.339844 150.972656 C 36.492188 150.78125 34.664062 149.746094 32.476562 147.945312 C 33.417969 147.097656 34.464844 146.40625 35.621094 145.878906 C 36.558594 147.828125 37.535156 149.273438 39.339844 150.972656 Z M 40.605469 144.695312 C 39.273438 144.730469 37.984375 144.972656 36.730469 145.421875 C 37.578125 147.152344 39.097656 149.5 40.605469 150.996094 Z M 41.734375 144.691406 C 43.019531 144.75 44.316406 145 45.585938 145.453125 C 44.707031 147.203125 43.210938 149.652344 41.734375 151.007812 Z M 46.707031 145.902344 C 47.851562 146.449219 48.90625 147.105469 49.875 147.929688 C 47.648438 149.75 45.886719 150.742188 43.085938 150.921875 C 44.839844 149.269531 45.789062 147.976562 46.707031 145.902344 Z M 39.230469 123.542969 C 36.382812 123.734375 34.554688 124.769531 32.363281 126.570312 C 33.308594 127.417969 34.355469 128.105469 35.507812 128.632812 C 36.445312 126.6875 37.425781 125.242188 39.230469 123.542969 Z M 40.492188 129.816406 C 39.164062 129.785156 37.871094 129.542969 36.621094 129.09375 C 37.46875 127.359375 38.988281 125.015625 40.496094 123.519531 Z M 41.621094 129.824219 C 42.945312 129.765625 44.226562 129.507812 45.472656 129.0625 C 44.59375 127.3125 43.097656 124.863281 41.621094 123.507812 Z M 46.597656 128.613281 C 47.738281 128.0625 48.796875 127.410156 49.761719 126.585938 C 47.539062 124.761719 45.773438 123.773438 42.976562 123.59375 C 44.726562 125.246094 45.675781 126.539062 46.597656 128.613281 Z M 27.320312 136.675781 C 27.472656 133.128906 29.003906 129.679688 31.667969 127.199219 C 32.691406 128.148438 33.835938 128.90625 35.046875 129.492188 C 33.902344 131.738281 33.269531 134.136719 33.1875 136.675781 Z M 34.375 136.691406 C 34.46875 134.316406 35.054688 132.070312 36.136719 129.957031 C 37.527344 130.457031 38.988281 130.757812 40.480469 130.804688 L 40.492188 136.660156 Z M 47.726562 136.667969 C 47.652344 134.300781 47.070312 132.070312 45.976562 129.972656 C 44.539062 130.488281 43.070312 130.773438 41.613281 130.824219 L 41.617188 136.660156 Z M 50.484375 127.207031 C 51.46875 128.128906 52.300781 129.175781 52.980469 130.347656 C 54.140625 132.347656 54.734375 134.523438 54.804688 136.675781 L 48.910156 136.667969 C 48.851562 134.230469 48.253906 131.777344 47.082031 129.480469 C 48.324219 128.882812 49.457031 128.125 50.484375 127.207031 Z M 50.492188 147.269531 C 51.476562 146.34375 52.308594 145.296875 52.988281 144.128906 C 54.144531 142.128906 54.742188 139.953125 54.808594 137.800781 L 48.914062 137.808594 C 48.859375 140.242188 48.261719 142.699219 47.089844 144.996094 C 48.328125 145.59375 49.464844 146.351562 50.492188 147.269531 Z M 47.730469 137.808594 C 47.660156 140.171875 47.078125 142.40625 45.984375 144.503906 C 44.546875 143.988281 43.078125 143.703125 41.621094 143.648438 L 41.625 137.8125 Z M 34.382812 137.785156 C 34.472656 140.160156 35.0625 142.402344 36.144531 144.519531 C 37.535156 144.015625 38.996094 143.714844 40.488281 143.667969 L 40.5 137.8125 Z M 27.324219 137.800781 C 27.480469 141.347656 29.007812 144.796875 31.675781 147.277344 C 32.699219 146.328125 33.84375 145.570312 35.054688 144.984375 C 33.90625 142.738281 33.273438 140.335938 33.195312 137.800781 Z M 27.324219 137.800781 " fill-opacity="1" fill-rule="evenodd"/><g fill="#000000" fill-opacity="1"><g transform="translate(75.610495, 126.746051)"><g><path d="M 6.546875 -3.90625 L 12.25 -3.90625 L 12.25 0 L 1.453125 0 L 1.453125 -18.328125 L 6.546875 -18.328125 Z M 6.546875 -3.90625 "/></g></g></g><g fill="#000000" fill-opacity="1"><g transform="translate(88.37267, 126.746051)"><g><path d="M 6.546875 -14.25 L 6.546875 -11.265625 L 12.40625 -11.265625 L 12.40625 -7.390625 L 6.546875 -7.390625 L 6.546875 -4.078125 L 13.1875 -4.078125 L 13.1875 0 L 1.453125 0 L 1.453125 -18.328125 L 13.1875 -18.328125 L 13.1875 -14.25 Z M 6.546875 -14.25 "/></g></g></g><g fill="#000000" fill-opacity="1"><g transform="translate(102.616398, 126.746051)"><g><path d="M 13.046875 -2.984375 L 6.546875 -2.984375 L 5.5625 0 L 0.203125 0 L 6.890625 -18.328125 L 12.765625 -18.328125 L 19.421875 0 L 14.046875 0 Z M 11.78125 -6.890625 L 9.796875 -12.8125 L 7.859375 -6.890625 Z M 11.78125 -6.890625 "/></g></g></g><g fill="#000000" fill-opacity="1"><g transform="translate(122.240519, 126.746051)"><g><path d="M 8.703125 -18.328125 C 10.628906 -18.328125 12.316406 -17.941406 13.765625 -17.171875 C 15.210938 -16.398438 16.328125 -15.320312 17.109375 -13.9375 C 17.890625 -12.550781 18.28125 -10.960938 18.28125 -9.171875 C 18.28125 -7.410156 17.882812 -5.832031 17.09375 -4.4375 C 16.300781 -3.050781 15.179688 -1.960938 13.734375 -1.171875 C 12.285156 -0.390625 10.609375 0 8.703125 0 L 1.453125 0 L 1.453125 -18.328125 Z M 8.3125 -4.5 C 9.8125 -4.5 10.984375 -4.90625 11.828125 -5.71875 C 12.679688 -6.53125 13.109375 -7.679688 13.109375 -9.171875 C 13.109375 -10.679688 12.679688 -11.847656 11.828125 -12.671875 C 10.984375 -13.492188 9.8125 -13.90625 8.3125 -13.90625 L 6.546875 -13.90625 L 6.546875 -4.5 Z M 8.3125 -4.5 "/></g></g></g><g fill="#000000" fill-opacity="1"><g transform="translate(141.344792, 126.746051)"><g><path d="M 6.546875 -14.25 L 6.546875 -11.265625 L 12.40625 -11.265625 L 12.40625 -7.390625 L 6.546875 -7.390625 L 6.546875 -4.078125 L 13.1875 -4.078125 L 13.1875 0 L 1.453125 0 L 1.453125 -18.328125 L 13.1875 -18.328125 L 13.1875 -14.25 Z M 6.546875 -14.25 "/></g></g></g><g fill="#000000" fill-opacity="1"><g transform="translate(155.58852, 126.746051)"><g><path d="M 10.734375 0 L 7.09375 -6.765625 L 6.546875 -6.765625 L 6.546875 0 L 1.453125 0 L 1.453125 -18.328125 L 9.484375 -18.328125 C 10.960938 -18.328125 12.210938 -18.070312 13.234375 -17.5625 C 14.253906 -17.050781 15.023438 -16.347656 15.546875 -15.453125 C 16.066406 -14.566406 16.328125 -13.566406 16.328125 -12.453125 C 16.328125 -11.203125 15.984375 -10.101562 15.296875 -9.15625 C 14.617188 -8.21875 13.617188 -7.550781 12.296875 -7.15625 L 16.4375 0 Z M 6.546875 -10.25 L 9.078125 -10.25 C 9.765625 -10.25 10.28125 -10.410156 10.625 -10.734375 C 10.976562 -11.066406 11.15625 -11.546875 11.15625 -12.171875 C 11.15625 -12.753906 10.976562 -13.210938 10.625 -13.546875 C 10.269531 -13.890625 9.753906 -14.0625 9.078125 -14.0625 L 6.546875 -14.0625 Z M 6.546875 -10.25 "/></g></g></g><g fill="#000000" fill-opacity="1"><g transform="translate(172.769373, 126.746051)"><g><path d="M 8.375 0.1875 C 6.238281 0.1875 4.484375 -0.316406 3.109375 -1.328125 C 1.742188 -2.347656 1.007812 -3.800781 0.90625 -5.6875 L 6.34375 -5.6875 C 6.394531 -5.050781 6.582031 -4.582031 6.90625 -4.28125 C 7.238281 -3.988281 7.664062 -3.84375 8.1875 -3.84375 C 8.65625 -3.84375 9.039062 -3.957031 9.34375 -4.1875 C 9.644531 -4.425781 9.796875 -4.753906 9.796875 -5.171875 C 9.796875 -5.710938 9.546875 -6.128906 9.046875 -6.421875 C 8.546875 -6.710938 7.734375 -7.039062 6.609375 -7.40625 C 5.410156 -7.8125 4.441406 -8.195312 3.703125 -8.5625 C 2.960938 -8.9375 2.320312 -9.484375 1.78125 -10.203125 C 1.238281 -10.921875 0.96875 -11.863281 0.96875 -13.03125 C 0.96875 -14.207031 1.257812 -15.210938 1.84375 -16.046875 C 2.4375 -16.890625 3.25 -17.523438 4.28125 -17.953125 C 5.320312 -18.390625 6.503906 -18.609375 7.828125 -18.609375 C 9.960938 -18.609375 11.664062 -18.109375 12.9375 -17.109375 C 14.207031 -16.117188 14.882812 -14.722656 14.96875 -12.921875 L 9.4375 -12.921875 C 9.414062 -13.472656 9.242188 -13.890625 8.921875 -14.171875 C 8.609375 -14.453125 8.203125 -14.59375 7.703125 -14.59375 C 7.316406 -14.59375 7 -14.476562 6.75 -14.25 C 6.507812 -14.019531 6.390625 -13.695312 6.390625 -13.28125 C 6.390625 -12.9375 6.523438 -12.640625 6.796875 -12.390625 C 7.066406 -12.140625 7.398438 -11.921875 7.796875 -11.734375 C 8.191406 -11.554688 8.78125 -11.328125 9.5625 -11.046875 C 10.726562 -10.648438 11.6875 -10.253906 12.4375 -9.859375 C 13.195312 -9.472656 13.847656 -8.925781 14.390625 -8.21875 C 14.929688 -7.519531 15.203125 -6.632812 15.203125 -5.5625 C 15.203125 -4.46875 14.929688 -3.488281 14.390625 -2.625 C 13.847656 -1.757812 13.0625 -1.070312 12.03125 -0.5625 C 11 -0.0625 9.78125 0.1875 8.375 0.1875 Z M 8.375 0.1875 "/></g></g></g><g fill="#000000" fill-opacity="1"><g transform="translate(188.884542, 126.746051)"><g><path d="M 17.859375 -18.328125 L 17.859375 0 L 12.765625 0 L 12.765625 -7.359375 L 6.546875 -7.359375 L 6.546875 0 L 1.453125 0 L 1.453125 -18.328125 L 6.546875 -18.328125 L 6.546875 -11.4375 L 12.765625 -11.4375 L 12.765625 -18.328125 Z M 17.859375 -18.328125 "/></g></g></g><g fill="#000000" fill-opacity="1"><g transform="translate(208.196755, 126.746051)"><g><path d="M 6.546875 -18.328125 L 6.546875 0 L 1.453125 0 L 1.453125 -18.328125 Z M 6.546875 -18.328125 "/></g></g></g><g fill="#000000" fill-opacity="1"><g transform="translate(216.202354, 126.746051)"><g><path d="M 15.9375 -12.21875 C 15.9375 -11.113281 15.679688 -10.101562 15.171875 -9.1875 C 14.660156 -8.28125 13.890625 -7.550781 12.859375 -7 C 11.828125 -6.457031 10.566406 -6.1875 9.078125 -6.1875 L 6.546875 -6.1875 L 6.546875 0 L 1.453125 0 L 1.453125 -18.328125 L 9.078125 -18.328125 C 10.546875 -18.328125 11.796875 -18.066406 12.828125 -17.546875 C 13.859375 -17.023438 14.632812 -16.304688 15.15625 -15.390625 C 15.675781 -14.472656 15.9375 -13.414062 15.9375 -12.21875 Z M 8.578125 -10.25 C 10.015625 -10.25 10.734375 -10.90625 10.734375 -12.21875 C 10.734375 -13.550781 10.015625 -14.21875 8.578125 -14.21875 L 6.546875 -14.21875 L 6.546875 -10.25 Z M 8.578125 -10.25 "/></g></g></g><g fill="#000000" fill-opacity="1"><g transform="translate(232.733401, 126.746051)"><g/></g></g><g fill="#000000" fill-opacity="1"><g transform="translate(237.697916, 126.746051)"><g><path d="M 15.265625 -18.328125 L 15.265625 -14.28125 L 10.375 -14.28125 L 10.375 0 L 5.28125 0 L 5.28125 -14.28125 L 0.4375 -14.28125 L 0.4375 -18.328125 Z M 15.265625 -18.328125 "/></g></g></g><g fill="#000000" fill-opacity="1"><g transform="translate(253.397218, 126.746051)"><g><path d="M 10.734375 0 L 7.09375 -6.765625 L 6.546875 -6.765625 L 6.546875 0 L 1.453125 0 L 1.453125 -18.328125 L 9.484375 -18.328125 C 10.960938 -18.328125 12.210938 -18.070312 13.234375 -17.5625 C 14.253906 -17.050781 15.023438 -16.347656 15.546875 -15.453125 C 16.066406 -14.566406 16.328125 -13.566406 16.328125 -12.453125 C 16.328125 -11.203125 15.984375 -10.101562 15.296875 -9.15625 C 14.617188 -8.21875 13.617188 -7.550781 12.296875 -7.15625 L 16.4375 0 Z M 6.546875 -10.25 L 9.078125 -10.25 C 9.765625 -10.25 10.28125 -10.410156 10.625 -10.734375 C 10.976562 -11.066406 11.15625 -11.546875 11.15625 -12.171875 C 11.15625 -12.753906 10.976562 -13.210938 10.625 -13.546875 C 10.269531 -13.890625 9.753906 -14.0625 9.078125 -14.0625 L 6.546875 -14.0625 Z M 6.546875 -10.25 "/></g></g></g><g fill="#000000" fill-opacity="1"><g transform="translate(270.578072, 126.746051)"><g><path d="M 13.046875 -2.984375 L 6.546875 -2.984375 L 5.5625 0 L 0.203125 0 L 6.890625 -18.328125 L 12.765625 -18.328125 L 19.421875 0 L 14.046875 0 Z M 11.78125 -6.890625 L 9.796875 -12.8125 L 7.859375 -6.890625 Z M 11.78125 -6.890625 "/></g></g></g><g fill="#000000" fill-opacity="1"><g transform="translate(290.202193, 126.746051)"><g><path d="M 6.546875 -18.328125 L 6.546875 0 L 1.453125 0 L 1.453125 -18.328125 Z M 6.546875 -18.328125 "/></g></g></g><g fill="#000000" fill-opacity="1"><g transform="translate(298.207793, 126.746051)"><g><path d="M 18.4375 0 L 13.34375 0 L 6.546875 -10.25 L 6.546875 0 L 1.453125 0 L 1.453125 -18.328125 L 6.546875 -18.328125 L 13.34375 -7.953125 L 13.34375 -18.328125 L 18.4375 -18.328125 Z M 18.4375 0 "/></g></g></g><g fill="#000000" fill-opacity="1"><g transform="translate(318.091832, 126.746051)"><g><path d="M 6.546875 -18.328125 L 6.546875 0 L 1.453125 0 L 1.453125 -18.328125 Z M 6.546875 -18.328125 "/></g></g></g><g fill="#000000" fill-opacity="1"><g transform="translate(326.097431, 126.746051)"><g><path d="M 18.4375 0 L 13.34375 0 L 6.546875 -10.25 L 6.546875 0 L 1.453125 0 L 1.453125 -18.328125 L 6.546875 -18.328125 L 13.34375 -7.953125 L 13.34375 -18.328125 L 18.4375 -18.328125 Z M 18.4375 0 "/></g></g></g><g fill="#000000" fill-opacity="1"><g transform="translate(345.981471, 126.746051)"><g><path d="M 13.15625 -12.296875 C 12.863281 -12.785156 12.460938 -13.160156 11.953125 -13.421875 C 11.441406 -13.679688 10.835938 -13.8125 10.140625 -13.8125 C 8.859375 -13.8125 7.847656 -13.394531 7.109375 -12.5625 C 6.367188 -11.726562 6 -10.609375 6 -9.203125 C 6 -7.628906 6.394531 -6.429688 7.1875 -5.609375 C 7.976562 -4.785156 9.128906 -4.375 10.640625 -4.375 C 12.421875 -4.375 13.691406 -5.175781 14.453125 -6.78125 L 9.328125 -6.78125 L 9.328125 -10.453125 L 18.84375 -10.453125 L 18.84375 -5.515625 C 18.445312 -4.546875 17.863281 -3.632812 17.09375 -2.78125 C 16.320312 -1.9375 15.347656 -1.238281 14.171875 -0.6875 C 12.992188 -0.144531 11.648438 0.125 10.140625 0.125 C 8.304688 0.125 6.679688 -0.265625 5.265625 -1.046875 C 3.847656 -1.835938 2.753906 -2.9375 1.984375 -4.34375 C 1.210938 -5.757812 0.828125 -7.378906 0.828125 -9.203125 C 0.828125 -11.003906 1.210938 -12.609375 1.984375 -14.015625 C 2.753906 -15.429688 3.84375 -16.535156 5.25 -17.328125 C 6.65625 -18.117188 8.273438 -18.515625 10.109375 -18.515625 C 12.421875 -18.515625 14.328125 -17.957031 15.828125 -16.84375 C 17.335938 -15.738281 18.273438 -14.222656 18.640625 -12.296875 Z M 13.15625 -12.296875 "/></g></g></g><g fill="#000000" fill-opacity="1"><g transform="translate(365.649538, 126.746051)"><g/></g></g><g fill="#000000" fill-opacity="1"><g transform="translate(370.614054, 126.746051)"><g/></g></g><g fill="#000000" fill-opacity="1"><g transform="translate(75.610495, 162.746049)"><g><path d="M 13.15625 -12.296875 C 12.863281 -12.785156 12.460938 -13.160156 11.953125 -13.421875 C 11.441406 -13.679688 10.835938 -13.8125 10.140625 -13.8125 C 8.859375 -13.8125 7.847656 -13.394531 7.109375 -12.5625 C 6.367188 -11.726562 6 -10.609375 6 -9.203125 C 6 -7.628906 6.394531 -6.429688 7.1875 -5.609375 C 7.976562 -4.785156 9.128906 -4.375 10.640625 -4.375 C 12.421875 -4.375 13.691406 -5.175781 14.453125 -6.78125 L 9.328125 -6.78125 L 9.328125 -10.453125 L 18.84375 -10.453125 L 18.84375 -5.515625 C 18.445312 -4.546875 17.863281 -3.632812 17.09375 -2.78125 C 16.320312 -1.9375 15.347656 -1.238281 14.171875 -0.6875 C 12.992188 -0.144531 11.648438 0.125 10.140625 0.125 C 8.304688 0.125 6.679688 -0.265625 5.265625 -1.046875 C 3.847656 -1.835938 2.753906 -2.9375 1.984375 -4.34375 C 1.210938 -5.757812 0.828125 -7.378906 0.828125 -9.203125 C 0.828125 -11.003906 1.210938 -12.609375 1.984375 -14.015625 C 2.753906 -15.429688 3.84375 -16.535156 5.25 -17.328125 C 6.65625 -18.117188 8.273438 -18.515625 10.109375 -18.515625 C 12.421875 -18.515625 14.328125 -17.957031 15.828125 -16.84375 C 17.335938 -15.738281 18.273438 -14.222656 18.640625 -12.296875 Z M 13.15625 -12.296875 "/></g></g></g><g fill="#000000" fill-opacity="1"><g transform="translate(95.286595, 162.746049)"><g><path d="M 6.546875 -3.90625 L 12.25 -3.90625 L 12.25 0 L 1.453125 0 L 1.453125 -18.328125 L 6.546875 -18.328125 Z M 6.546875 -3.90625 "/></g></g></g><g fill="#000000" fill-opacity="1"><g transform="translate(108.04877, 162.746049)"><g><path d="M 10.25 0.1875 C 8.53125 0.1875 6.953125 -0.210938 5.515625 -1.015625 C 4.078125 -1.828125 2.9375 -2.945312 2.09375 -4.375 C 1.25 -5.8125 0.828125 -7.429688 0.828125 -9.234375 C 0.828125 -11.035156 1.25 -12.648438 2.09375 -14.078125 C 2.9375 -15.503906 4.078125 -16.613281 5.515625 -17.40625 C 6.953125 -18.207031 8.53125 -18.609375 10.25 -18.609375 C 11.976562 -18.609375 13.554688 -18.207031 14.984375 -17.40625 C 16.421875 -16.613281 17.550781 -15.503906 18.375 -14.078125 C 19.207031 -12.648438 19.625 -11.035156 19.625 -9.234375 C 19.625 -7.429688 19.207031 -5.8125 18.375 -4.375 C 17.550781 -2.945312 16.414062 -1.828125 14.96875 -1.015625 C 13.53125 -0.210938 11.957031 0.1875 10.25 0.1875 Z M 10.25 -4.546875 C 11.539062 -4.546875 12.5625 -4.96875 13.3125 -5.8125 C 14.070312 -6.664062 14.453125 -7.804688 14.453125 -9.234375 C 14.453125 -10.679688 14.070312 -11.828125 13.3125 -12.671875 C 12.5625 -13.515625 11.539062 -13.9375 10.25 -13.9375 C 8.925781 -13.9375 7.890625 -13.515625 7.140625 -12.671875 C 6.398438 -11.828125 6.03125 -10.679688 6.03125 -9.234375 C 6.03125 -7.796875 6.398438 -6.65625 7.140625 -5.8125 C 7.890625 -4.96875 8.925781 -4.546875 10.25 -4.546875 Z M 10.25 -4.546875 "/></g></g></g><g fill="#000000" fill-opacity="1"><g transform="translate(128.504637, 162.746049)"><g><path d="M 13.15625 -9.40625 C 14.226562 -9.164062 15.082031 -8.632812 15.71875 -7.8125 C 16.351562 -6.988281 16.671875 -6.046875 16.671875 -4.984375 C 16.671875 -3.429688 16.128906 -2.210938 15.046875 -1.328125 C 13.972656 -0.441406 12.46875 0 10.53125 0 L 1.453125 0 L 1.453125 -18.328125 L 10.25 -18.328125 C 12.113281 -18.328125 13.578125 -17.910156 14.640625 -17.078125 C 15.710938 -16.242188 16.25 -15.078125 16.25 -13.578125 C 16.25 -12.492188 15.96875 -11.59375 15.40625 -10.875 C 14.84375 -10.15625 14.09375 -9.664062 13.15625 -9.40625 Z M 6.546875 -11.046875 L 9.125 -11.046875 C 10.40625 -11.046875 11.046875 -11.578125 11.046875 -12.640625 C 11.046875 -13.734375 10.40625 -14.28125 9.125 -14.28125 L 6.546875 -14.28125 Z M 9.515625 -4.109375 C 10.796875 -4.109375 11.4375 -4.644531 11.4375 -5.71875 C 11.4375 -6.269531 11.265625 -6.691406 10.921875 -6.984375 C 10.585938 -7.285156 10.109375 -7.4375 9.484375 -7.4375 L 6.546875 -7.4375 L 6.546875 -4.109375 Z M 9.515625 -4.109375 "/></g></g></g><g fill="#000000" fill-opacity="1"><g transform="translate(145.945408, 162.746049)"><g><path d="M 13.046875 -2.984375 L 6.546875 -2.984375 L 5.5625 0 L 0.203125 0 L 6.890625 -18.328125 L 12.765625 -18.328125 L 19.421875 0 L 14.046875 0 Z M 11.78125 -6.890625 L 9.796875 -12.8125 L 7.859375 -6.890625 Z M 11.78125 -6.890625 "/></g></g></g><g fill="#000000" fill-opacity="1"><g transform="translate(165.56953, 162.746049)"><g><path d="M 6.546875 -3.90625 L 12.25 -3.90625 L 12.25 0 L 1.453125 0 L 1.453125 -18.328125 L 6.546875 -18.328125 Z M 6.546875 -3.90625 "/></g></g></g><g fill="#000000" fill-opacity="1"><g transform="translate(178.331705, 162.746049)"><g/></g></g><g fill="#000000" fill-opacity="1"><g transform="translate(183.296221, 162.746049)"><g><path d="M 8.375 0.1875 C 6.238281 0.1875 4.484375 -0.316406 3.109375 -1.328125 C 1.742188 -2.347656 1.007812 -3.800781 0.90625 -5.6875 L 6.34375 -5.6875 C 6.394531 -5.050781 6.582031 -4.582031 6.90625 -4.28125 C 7.238281 -3.988281 7.664062 -3.84375 8.1875 -3.84375 C 8.65625 -3.84375 9.039062 -3.957031 9.34375 -4.1875 C 9.644531 -4.425781 9.796875 -4.753906 9.796875 -5.171875 C 9.796875 -5.710938 9.546875 -6.128906 9.046875 -6.421875 C 8.546875 -6.710938 7.734375 -7.039062 6.609375 -7.40625 C 5.410156 -7.8125 4.441406 -8.195312 3.703125 -8.5625 C 2.960938 -8.9375 2.320312 -9.484375 1.78125 -10.203125 C 1.238281 -10.921875 0.96875 -11.863281 0.96875 -13.03125 C 0.96875 -14.207031 1.257812 -15.210938 1.84375 -16.046875 C 2.4375 -16.890625 3.25 -17.523438 4.28125 -17.953125 C 5.320312 -18.390625 6.503906 -18.609375 7.828125 -18.609375 C 9.960938 -18.609375 11.664062 -18.109375 12.9375 -17.109375 C 14.207031 -16.117188 14.882812 -14.722656 14.96875 -12.921875 L 9.4375 -12.921875 C 9.414062 -13.472656 9.242188 -13.890625 8.921875 -14.171875 C 8.609375 -14.453125 8.203125 -14.59375 7.703125 -14.59375 C 7.316406 -14.59375 7 -14.476562 6.75 -14.25 C 6.507812 -14.019531 6.390625 -13.695312 6.390625 -13.28125 C 6.390625 -12.9375 6.523438 -12.640625 6.796875 -12.390625 C 7.066406 -12.140625 7.398438 -11.921875 7.796875 -11.734375 C 8.191406 -11.554688 8.78125 -11.328125 9.5625 -11.046875 C 10.726562 -10.648438 11.6875 -10.253906 12.4375 -9.859375 C 13.195312 -9.472656 13.847656 -8.925781 14.390625 -8.21875 C 14.929688 -7.519531 15.203125 -6.632812 15.203125 -5.5625 C 15.203125 -4.46875 14.929688 -3.488281 14.390625 -2.625 C 13.847656 -1.757812 13.0625 -1.070312 12.03125 -0.5625 C 11 -0.0625 9.78125 0.1875 8.375 0.1875 Z M 8.375 0.1875 "/></g></g></g><g fill="#000000" fill-opacity="1"><g transform="translate(199.411389, 162.746049)"><g><path d="M 6.453125 -18.328125 L 6.453125 -7.703125 C 6.453125 -6.710938 6.679688 -5.945312 7.140625 -5.40625 C 7.597656 -4.875 8.296875 -4.609375 9.234375 -4.609375 C 10.171875 -4.609375 10.875 -4.878906 11.34375 -5.421875 C 11.820312 -5.960938 12.0625 -6.722656 12.0625 -7.703125 L 12.0625 -18.328125 L 17.15625 -18.328125 L 17.15625 -7.703125 C 17.15625 -6.015625 16.800781 -4.578125 16.09375 -3.390625 C 15.382812 -2.203125 14.414062 -1.304688 13.1875 -0.703125 C 11.96875 -0.109375 10.613281 0.1875 9.125 0.1875 C 7.632812 0.1875 6.300781 -0.109375 5.125 -0.703125 C 3.957031 -1.304688 3.039062 -2.195312 2.375 -3.375 C 1.707031 -4.550781 1.375 -5.992188 1.375 -7.703125 L 1.375 -18.328125 Z M 6.453125 -18.328125 "/></g></g></g><g fill="#000000" fill-opacity="1"><g transform="translate(217.917847, 162.746049)"><g><path d="M 22.859375 -18.328125 L 22.859375 0 L 17.765625 0 L 17.765625 -10.109375 L 14.296875 0 L 10.03125 0 L 6.546875 -10.1875 L 6.546875 0 L 1.453125 0 L 1.453125 -18.328125 L 7.625 -18.328125 L 12.21875 -6.421875 L 16.71875 -18.328125 Z M 22.859375 -18.328125 "/></g></g></g><g fill="#000000" fill-opacity="1"><g transform="translate(242.220564, 162.746049)"><g><path d="M 22.859375 -18.328125 L 22.859375 0 L 17.765625 0 L 17.765625 -10.109375 L 14.296875 0 L 10.03125 0 L 6.546875 -10.1875 L 6.546875 0 L 1.453125 0 L 1.453125 -18.328125 L 7.625 -18.328125 L 12.21875 -6.421875 L 16.71875 -18.328125 Z M 22.859375 -18.328125 "/></g></g></g><g fill="#000000" fill-opacity="1"><g transform="translate(266.523281, 162.746049)"><g><path d="M 6.546875 -18.328125 L 6.546875 0 L 1.453125 0 L 1.453125 -18.328125 Z M 6.546875 -18.328125 "/></g></g></g><g fill="#000000" fill-opacity="1"><g transform="translate(274.528892, 162.746049)"><g><path d="M 15.265625 -18.328125 L 15.265625 -14.28125 L 10.375 -14.28125 L 10.375 0 L 5.28125 0 L 5.28125 -14.28125 L 0.4375 -14.28125 L 0.4375 -18.328125 Z M 15.265625 -18.328125 "/></g></g></g><g fill="#000000" fill-opacity="1"><g transform="translate(290.228194, 162.746049)"><g/></g></g><g fill="#000000" fill-opacity="1"><g transform="translate(295.192709, 162.746049)"><g><path d="M 0.859375 -4.078125 C 2.535156 -5.398438 3.910156 -6.535156 4.984375 -7.484375 C 6.066406 -8.441406 6.96875 -9.425781 7.6875 -10.4375 C 8.414062 -11.445312 8.78125 -12.414062 8.78125 -13.34375 C 8.78125 -13.894531 8.65625 -14.328125 8.40625 -14.640625 C 8.15625 -14.953125 7.789062 -15.109375 7.3125 -15.109375 C 6.800781 -15.109375 6.40625 -14.894531 6.125 -14.46875 C 5.851562 -14.039062 5.726562 -13.421875 5.75 -12.609375 L 0.8125 -12.609375 C 0.863281 -14.148438 1.195312 -15.425781 1.8125 -16.4375 C 2.4375 -17.457031 3.25 -18.203125 4.25 -18.671875 C 5.257812 -19.148438 6.382812 -19.390625 7.625 -19.390625 C 9.75 -19.390625 11.332031 -18.859375 12.375 -17.796875 C 13.414062 -16.742188 13.9375 -15.378906 13.9375 -13.703125 C 13.9375 -11.898438 13.332031 -10.207031 12.125 -8.625 C 10.925781 -7.050781 9.425781 -5.640625 7.625 -4.390625 L 14.125 -4.390625 L 14.125 -0.265625 L 0.859375 -0.265625 Z M 0.859375 -4.078125 "/></g></g></g><g fill="#000000" fill-opacity="1"><g transform="translate(309.982274, 162.746049)"><g><path d="M 1.015625 -9.78125 C 1.015625 -12.757812 1.617188 -15.101562 2.828125 -16.8125 C 4.046875 -18.53125 5.953125 -19.390625 8.546875 -19.390625 C 11.148438 -19.390625 13.0625 -18.53125 14.28125 -16.8125 C 15.507812 -15.101562 16.125 -12.757812 16.125 -9.78125 C 16.125 -6.757812 15.515625 -4.390625 14.296875 -2.671875 C 13.085938 -0.960938 11.171875 -0.109375 8.546875 -0.109375 C 5.929688 -0.109375 4.019531 -0.960938 2.8125 -2.671875 C 1.613281 -4.390625 1.015625 -6.757812 1.015625 -9.78125 Z M 11.078125 -9.78125 C 11.078125 -11.332031 10.910156 -12.519531 10.578125 -13.34375 C 10.253906 -14.175781 9.578125 -14.59375 8.546875 -14.59375 C 7.523438 -14.59375 6.847656 -14.175781 6.515625 -13.34375 C 6.191406 -12.519531 6.03125 -11.332031 6.03125 -9.78125 C 6.03125 -8.1875 6.191406 -6.972656 6.515625 -6.140625 C 6.835938 -5.316406 7.515625 -4.90625 8.546875 -4.90625 C 9.585938 -4.90625 10.269531 -5.316406 10.59375 -6.140625 C 10.914062 -6.972656 11.078125 -8.1875 11.078125 -9.78125 Z M 11.078125 -9.78125 "/></g></g></g><g fill="#000000" fill-opacity="1"><g transform="translate(327.059146, 162.746049)"><g><path d="M 0.859375 -4.078125 C 2.535156 -5.398438 3.910156 -6.535156 4.984375 -7.484375 C 6.066406 -8.441406 6.96875 -9.425781 7.6875 -10.4375 C 8.414062 -11.445312 8.78125 -12.414062 8.78125 -13.34375 C 8.78125 -13.894531 8.65625 -14.328125 8.40625 -14.640625 C 8.15625 -14.953125 7.789062 -15.109375 7.3125 -15.109375 C 6.800781 -15.109375 6.40625 -14.894531 6.125 -14.46875 C 5.851562 -14.039062 5.726562 -13.421875 5.75 -12.609375 L 0.8125 -12.609375 C 0.863281 -14.148438 1.195312 -15.425781 1.8125 -16.4375 C 2.4375 -17.457031 3.25 -18.203125 4.25 -18.671875 C 5.257812 -19.148438 6.382812 -19.390625 7.625 -19.390625 C 9.75 -19.390625 11.332031 -18.859375 12.375 -17.796875 C 13.414062 -16.742188 13.9375 -15.378906 13.9375 -13.703125 C 13.9375 -11.898438 13.332031 -10.207031 12.125 -8.625 C 10.925781 -7.050781 9.425781 -5.640625 7.625 -4.390625 L 14.125 -4.390625 L 14.125 -0.265625 L 0.859375 -0.265625 Z M 0.859375 -4.078125 "/></g></g></g><g fill="#000000" fill-opacity="1"><g transform="translate(341.848711, 162.746049)"><g><path d="M 0.859375 -4.078125 C 2.535156 -5.398438 3.910156 -6.535156 4.984375 -7.484375 C 6.066406 -8.441406 6.96875 -9.425781 7.6875 -10.4375 C 8.414062 -11.445312 8.78125 -12.414062 8.78125 -13.34375 C 8.78125 -13.894531 8.65625 -14.328125 8.40625 -14.640625 C 8.15625 -14.953125 7.789062 -15.109375 7.3125 -15.109375 C 6.800781 -15.109375 6.40625 -14.894531 6.125 -14.46875 C 5.851562 -14.039062 5.726562 -13.421875 5.75 -12.609375 L 0.8125 -12.609375 C 0.863281 -14.148438 1.195312 -15.425781 1.8125 -16.4375 C 2.4375 -17.457031 3.25 -18.203125 4.25 -18.671875 C 5.257812 -19.148438 6.382812 -19.390625 7.625 -19.390625 C 9.75 -19.390625 11.332031 -18.859375 12.375 -17.796875 C 13.414062 -16.742188 13.9375 -15.378906 13.9375 -13.703125 C 13.9375 -11.898438 13.332031 -10.207031 12.125 -8.625 C 10.925781 -7.050781 9.425781 -5.640625 7.625 -4.390625 L 14.125 -4.390625 L 14.125 -0.265625 L 0.859375 -0.265625 Z M 0.859375 -4.078125 "/></g></g></g></svg>